<?xml version="1.0" standalone="no"?>
<!DOCTYPE svg PUBLIC "-//W3C//DTD SVG 20010904//EN"
 "http://www.w3.org/TR/2001/REC-SVG-20010904/DTD/svg10.dtd">
<svg version="1.0" xmlns="http://www.w3.org/2000/svg"
 width="329.000000pt" height="503.000000pt" viewBox="0 0 329.000000 503.000000"
 preserveAspectRatio="xMidYMid meet">

<g transform="translate(0.000000,503.000000) scale(0.100000,-0.100000)"
fill="#000000" stroke="none">
<path d="M1760 4864 c-47 -13 -89 -26 -95 -28 -5 -2 24 -8 65 -13 l75 -10 -60
-2 c-33 0 -103 6 -155 14 -104 17 -111 16 -292 -32 -56 -15 -95 -30 -91 -36 4
-6 -4 -8 -20 -5 -15 3 -24 2 -22 -3 3 -4 -11 -13 -31 -19 -21 -7 -32 -15 -25
-19 11 -7 -110 -51 -141 -51 -9 0 -19 -4 -23 -9 -3 -6 -43 -22 -88 -36 -88
-28 -224 -111 -219 -134 2 -9 -4 -12 -18 -8 -11 3 -20 2 -20 -2 0 -5 -18 -16
-40 -26 -22 -10 -47 -26 -56 -36 -23 -25 -13 -24 16 1 13 11 27 20 32 20 6 0
-24 -34 -66 -76 -42 -42 -73 -80 -71 -85 8 -13 -6 -60 -16 -53 -5 3 -6 -2 -3
-10 9 -23 16 -20 47 20 40 50 45 35 7 -20 -17 -26 -32 -56 -33 -69 -2 -12 -11
-46 -21 -75 -17 -52 -15 -82 5 -52 6 10 9 -4 8 -45 -1 -33 8 -100 19 -150 11
-49 18 -94 15 -101 -2 -7 0 -15 5 -18 5 -3 7 -18 4 -32 -3 -17 -1 -25 5 -21 7
5 10 -11 8 -46 -2 -28 0 -56 3 -62 4 -5 7 -32 8 -60 5 -124 34 -299 69 -419
21 -69 20 -70 -27 -36 -48 35 -74 38 -81 10 -3 -11 -17 -24 -31 -30 -34 -12
-41 -43 -39 -165 0 -75 8 -124 27 -195 15 -52 29 -108 33 -124 9 -45 144 -239
176 -254 18 -9 42 -11 63 -8 l34 7 0 67 c-1 66 -6 98 -50 317 -18 90 -21 126
-15 200 4 50 9 119 10 155 4 90 25 229 36 236 5 3 9 16 9 30 0 14 4 22 10 19
5 -3 7 0 4 9 -8 21 6 43 16 26 5 -8 10 -2 15 19 3 17 10 31 14 31 4 0 12 12
18 28 l10 27 10 -25 c7 -17 7 -29 0 -38 -7 -9 -6 -11 4 -7 10 4 15 -3 16 -23
3 -43 21 -82 38 -82 8 0 15 -4 15 -9 0 -9 -31 -51 -66 -90 -16 -17 -21 -34
-19 -60 1 -20 -4 -60 -11 -90 -8 -29 -16 -110 -17 -180 -2 -70 -7 -132 -10
-138 -4 -7 -3 -14 3 -18 6 -4 7 -11 3 -18 -10 -17 -14 -59 -16 -200 -1 -71 1
-131 5 -133 5 -3 8 -10 8 -15 0 -6 -5 -7 -12 -3 -8 5 -9 2 -5 -9 3 -9 2 -19
-3 -22 -6 -4 -10 -13 -10 -21 0 -8 4 -13 9 -10 4 3 8 -26 7 -64 0 -38 -3 -65
-6 -60 -11 18 -2 -85 13 -156 20 -91 38 -134 84 -197 36 -48 38 -57 45 -147
17 -234 21 -340 11 -340 -15 0 -22 22 -29 86 -8 64 -23 71 -26 12 -3 -72 1
-111 17 -154 20 -53 25 -107 15 -169 -4 -27 -5 -54 -1 -60 3 -5 6 -45 6 -87 0
-55 4 -78 12 -78 7 0 18 -10 24 -22 8 -14 14 -18 17 -10 5 17 22 15 22 -3 0
-12 7 -14 27 -9 22 6 25 4 20 -10 -4 -9 -3 -16 2 -16 5 0 11 9 14 20 3 13 17
22 36 26 37 8 58 38 41 59 -7 8 -9 19 -5 25 3 5 1 10 -4 10 -6 0 -11 5 -11 10
0 22 45 7 118 -39 121 -77 383 -220 427 -233 22 -6 59 -12 83 -11 75 0 40 -42
-43 -52 -62 -8 -80 -1 -51 21 32 23 9 29 -35 9 -74 -34 -202 -183 -324 -379
-60 -97 -118 -185 -128 -194 -18 -16 -21 -15 -71 38 -62 67 -150 198 -201 300
-34 67 -51 120 -39 120 3 0 27 -35 54 -77 56 -88 62 -91 24 -14 -14 30 -23 59
-21 66 3 6 22 12 42 13 37 1 42 -1 106 -61 23 -20 59 -23 59 -3 0 7 7 19 15
26 8 7 15 26 15 42 0 24 -15 45 -70 100 -39 39 -70 74 -70 78 0 5 -14 18 -30
30 -17 12 -30 27 -30 35 0 7 -6 15 -12 18 -10 3 -10 9 0 26 10 17 10 21 0 21
-9 0 -8 3 2 10 13 9 13 10 0 11 -90 5 -123 41 -156 169 -25 97 -23 186 4 243
24 51 26 76 2 32 -7 -14 -19 -25 -27 -25 -18 0 -17 19 2 26 8 4 15 11 15 17 0
5 -9 2 -20 -8 -12 -10 -18 -25 -16 -32 4 -8 -3 -13 -17 -13 -16 0 -26 -9 -34
-31 -7 -18 -10 -36 -6 -42 4 -6 1 -7 -7 -2 -9 5 -10 2 -5 -14 4 -12 2 -21 -4
-21 -6 0 -7 -8 -4 -17 5 -13 2 -15 -12 -10 -15 7 -16 5 -5 -9 12 -13 11 -17
-1 -25 -8 -5 -9 -9 -4 -9 6 0 3 -5 -5 -10 -12 -8 -13 -12 -2 -19 11 -6 10 -10
-4 -15 -16 -6 -16 -9 -4 -17 11 -8 10 -9 -7 -4 -24 7 -33 -9 -10 -18 9 -4 9
-6 -1 -6 -7 -1 -10 -6 -7 -11 4 -6 1 -9 -6 -8 -7 2 -13 -1 -14 -7 0 -5 -4 -16
-9 -24 -7 -10 -3 -12 15 -6 13 3 20 3 14 -2 -5 -4 -15 -17 -22 -28 -6 -11 -17
-19 -24 -17 -7 2 -15 -2 -19 -9 -6 -8 -13 -8 -30 1 -18 10 -21 9 -18 -2 3 -7
18 -12 36 -12 18 1 32 -2 32 -8 0 -5 -4 -6 -10 -3 -5 3 -10 2 -10 -4 0 -7 -8
-7 -24 -1 -16 6 -27 5 -35 -3 -9 -9 -11 -8 -6 4 4 10 -3 19 -19 27 -21 9 -24
9 -19 -3 3 -8 9 -12 14 -9 5 3 9 0 9 -6 0 -8 -7 -9 -17 -5 -10 4 -25 7 -33 8
-8 0 -20 4 -26 9 -8 5 -14 2 -18 -9 -7 -17 13 -35 43 -39 7 -2 19 -8 25 -15 8
-9 7 -10 -8 -5 -17 6 -17 4 -5 -11 7 -10 9 -15 5 -11 -5 4 -17 -2 -27 -14 -23
-26 -24 -17 -4 22 14 26 14 29 0 24 -8 -3 -12 -10 -9 -15 3 -5 -2 -9 -11 -9
-9 0 -13 -5 -10 -10 3 -5 2 -10 -3 -10 -6 0 -9 11 -8 25 0 14 5 25 10 25 6 0
2 6 -8 13 -15 11 -17 17 -7 35 6 12 9 22 6 22 -2 0 -18 -26 -34 -58 -20 -40
-26 -63 -20 -74 6 -11 5 -15 -7 -14 -9 0 -28 -23 -47 -59 -18 -33 -34 -62 -37
-65 -3 -3 -18 -31 -35 -62 -16 -32 -33 -58 -37 -58 -8 0 84 184 95 188 4 2 7
10 7 17 0 8 6 20 13 27 17 18 88 191 73 179 -7 -6 -16 -8 -20 -4 -4 4 -4 -1 0
-11 5 -14 4 -17 -4 -12 -7 4 -19 1 -27 -8 -9 -9 -11 -17 -5 -21 5 -3 10 -1 10
4 0 6 5 11 11 11 8 0 9 -4 0 -13 -6 -8 -8 -17 -4 -20 3 -4 1 -7 -5 -7 -7 0
-12 4 -12 9 0 5 -11 8 -25 7 -14 0 -25 -5 -25 -10 0 -4 -7 -6 -14 -3 -10 4
-13 1 -9 -9 4 -10 0 -12 -13 -7 -14 5 -16 3 -11 -11 4 -10 3 -15 -3 -11 -6 3
-10 1 -10 -4 0 -6 -5 -11 -11 -11 -6 0 -8 9 -4 23 l7 22 -17 -23 c-9 -12 -21
-19 -27 -16 -7 4 -8 2 -4 -5 4 -6 11 -9 16 -6 5 3 14 -3 19 -14 16 -30 12 -40
-4 -11 -8 14 -15 22 -16 18 -1 -5 -3 -12 -4 -18 -1 -5 -3 -20 -4 -32 -1 -17
-4 -19 -13 -10 -9 9 -9 18 0 37 7 15 8 25 2 25 -6 0 -10 -7 -10 -15 0 -8 -4
-15 -10 -15 -5 0 -10 -12 -10 -26 0 -17 4 -23 12 -18 10 6 10 4 0 -8 -9 -12
-12 -86 -10 -324 l3 -309 78 -1 c67 -1 77 2 72 15 -4 14 -3 14 8 -1 15 -19
107 -24 107 -5 0 9 2 9 8 1 4 -7 62 -11 160 -12 141 -1 153 0 147 15 -3 10 -3
14 1 10 4 -4 15 0 25 9 17 15 18 15 13 -10 l-4 -26 129 0 130 0 -13 42 c-27
90 -89 284 -94 298 -12 33 48 -51 107 -149 34 -58 79 -124 98 -148 33 -40 39
-43 82 -43 l48 0 54 82 c30 45 62 87 71 92 24 15 72 -41 100 -116 l21 -58 133
0 134 0 1 38 c1 38 3 37 13 -10 6 -28 6 -28 96 -28 103 0 102 -1 130 105 l15
60 43 3 c42 3 45 1 129 -82 74 -74 90 -86 119 -86 19 0 34 3 34 6 0 3 -13 23
-28 43 -16 20 -86 121 -155 224 -70 103 -159 224 -199 268 -40 44 -74 83 -76
87 -1 4 53 38 120 76 304 172 475 311 547 446 40 75 65 184 49 214 -7 12 -11
72 -11 141 0 98 -2 109 -8 60 -4 -33 -7 -110 -8 -171 -2 -176 -37 -259 -169
-392 -77 -78 -169 -145 -305 -223 -211 -121 -224 -128 -245 -122 -12 3 -22 12
-22 19 0 14 -17 18 -54 14 -14 -1 -18 3 -13 19 3 12 1 23 -3 26 -18 11 5 45
44 66 51 26 76 52 76 79 0 11 5 20 10 20 15 0 12 16 -6 34 -10 10 -24 14 -40
10 -20 -5 -24 -2 -24 16 0 11 -4 18 -10 15 -13 -8 -13 6 0 39 5 14 16 26 25
26 8 0 20 9 27 20 7 11 18 20 25 20 6 0 31 15 56 34 24 19 55 37 68 41 13 4
29 14 37 21 7 8 28 14 45 14 20 0 27 3 19 8 -9 6 -8 13 6 28 34 35 153 139
160 139 4 0 24 17 45 38 20 20 42 37 47 37 6 0 10 6 10 13 0 6 14 27 30 46 16
18 27 37 24 42 -3 5 -2 8 3 7 15 -5 120 115 137 156 9 22 24 45 34 52 23 16
76 131 97 209 9 33 19 113 22 178 l6 118 31 -2 c17 -1 39 -1 48 0 22 1 185
221 164 221 -3 0 -32 -40 -65 -88 -60 -89 -96 -118 -138 -110 -15 3 -18 13
-18 66 0 65 13 86 43 74 11 -4 14 -1 9 11 -10 28 2 43 44 57 22 8 55 30 73 50
28 31 34 46 39 104 5 50 3 75 -8 96 -30 59 -107 93 -119 53 -3 -10 -3 0 0 22
3 22 6 57 8 78 3 26 15 50 40 77 41 46 45 55 15 40 -11 -7 -22 -10 -24 -8 -1
2 8 44 20 93 27 106 55 265 55 311 0 18 4 35 9 38 5 3 8 28 7 56 0 27 2 50 6
50 4 0 7 17 6 38 -1 20 4 97 11 169 7 73 10 137 6 143 -3 5 -1 10 5 10 8 0 9
7 5 18 -4 9 -11 37 -16 62 -10 51 -56 120 -108 165 -44 38 -90 79 -118 107
-21 20 -21 24 -8 45 9 13 12 23 8 23 -5 0 -8 31 -9 70 0 61 -6 80 -43 155 -35
70 -53 94 -99 131 -62 48 -165 104 -193 104 -9 0 -47 16 -83 35 -131 69 -285
83 -436 39z m107 0 c-3 -3 -12 -4 -19 -1 -8 3 -5 6 6 6 11 1 17 -2 13 -5z
m147 -20 c24 -17 26 -17 -86 12 l-53 13 59 -4 c32 -3 68 -12 80 -21z m67 -9
c30 -14 43 -22 29 -19 -26 7 -100 43 -89 44 4 0 31 -11 60 -25z m-208 -2 c-7
-2 -19 -2 -25 0 -7 3 -2 5 12 5 14 0 19 -2 13 -5z m297 -33 c8 -5 11 -10 5
-10 -5 0 -17 5 -25 10 -8 5 -10 10 -5 10 6 0 17 -5 25 -10z m45 -20 c3 -6 -1
-7 -9 -4 -18 7 -21 14 -7 14 6 0 13 -4 16 -10z m-14 -187 c13 -16 12 -17 -3
-4 -17 13 -22 21 -14 21 2 0 10 -8 17 -17z m-338 -531 c-2 -8 8 -9 30 -5 17 3
29 2 25 -2 -4 -4 9 -16 28 -27 28 -15 39 -16 50 -7 19 16 180 19 202 3 9 -6
22 -10 29 -7 6 3 22 -2 35 -11 12 -9 35 -16 50 -16 16 0 28 -4 28 -10 0 -5 7
-10 15 -10 20 0 95 -68 95 -86 0 -13 7 -16 26 -13 13 2 23 -26 18 -45 -4 -11
-2 -16 4 -12 6 3 14 1 18 -5 4 -8 3 -9 -4 -5 -15 9 -15 5 3 -57 12 -45 22
-128 28 -242 1 -16 5 -35 9 -41 4 -6 10 -31 14 -55 3 -24 15 -72 26 -107 11
-36 17 -74 14 -87 -4 -14 -3 -25 1 -25 5 0 9 -44 11 -98 1 -53 8 -139 14 -190
15 -130 7 -223 -27 -299 -16 -36 -32 -60 -38 -56 -6 3 -7 1 -3 -5 4 -7 0 -27
-10 -44 -30 -59 -34 -68 -34 -82 0 -8 -11 -26 -25 -40 -14 -14 -25 -34 -25
-46 0 -11 -3 -19 -7 -19 -22 4 -31 -3 -26 -21 4 -14 -1 -21 -20 -25 -17 -5
-24 -12 -20 -21 5 -12 -8 -19 -30 -15 -4 1 -10 -6 -12 -14 -3 -8 -8 -23 -12
-32 -8 -22 -10 -32 -12 -61 0 -13 -6 -20 -11 -17 -12 7 -30 -36 -30 -71 0 -14
-5 -23 -12 -22 -7 2 -12 -3 -10 -9 1 -7 -7 -22 -18 -33 -14 -14 -18 -28 -14
-48 4 -20 0 -34 -11 -45 -9 -10 -12 -17 -7 -17 16 0 7 -45 -10 -52 -13 -5 -15
-13 -9 -36 7 -21 5 -29 -5 -29 -7 0 -12 3 -12 6 2 10 -14 41 -21 41 -3 0 -7
-17 -8 -37 -1 -26 1 -33 7 -23 6 8 10 11 10 5 0 -5 -5 -17 -10 -25 -5 -8 -10
-10 -10 -4 0 7 -9 14 -21 17 -16 4 -18 3 -8 -9 9 -11 9 -14 -2 -14 -10 0 -10
-3 -1 -12 19 -19 14 -29 -7 -16 -10 6 -17 19 -14 27 3 11 1 10 -7 -2 -9 -15
-9 -22 4 -36 9 -10 13 -21 10 -24 -4 -4 -12 1 -19 10 -7 9 -17 13 -23 9 -16
-10 -15 -26 1 -26 7 0 24 -13 39 -30 14 -16 22 -30 18 -30 -5 0 -12 5 -15 10
-10 17 -25 11 -18 -7 4 -11 3 -14 -6 -9 -6 4 -9 16 -6 26 3 10 1 21 -5 25 -5
3 -10 1 -10 -6 0 -8 -5 -7 -17 2 -15 13 -15 12 -4 -9 15 -28 5 -48 -15 -31
-11 9 -11 4 2 -26 8 -20 13 -40 10 -43 -3 -3 -6 -1 -6 4 0 5 -9 10 -20 10 -13
0 -16 -4 -10 -10 16 -16 11 -30 -5 -16 -14 11 -14 10 -5 -16 11 -28 11 -28 -9
-10 -19 17 -19 17 -14 -4 5 -20 3 -21 -18 -15 -13 4 -30 12 -38 19 -11 9 -13
7 -7 -12 8 -24 -3 -29 -23 -10 -11 11 -11 9 0 -9 11 -18 11 -25 1 -35 -9 -9
-12 -8 -12 6 0 15 -3 16 -15 6 -12 -10 -15 -10 -15 3 0 9 -5 19 -12 23 -6 4
-8 3 -4 -4 9 -15 -12 -26 -28 -13 -11 9 -12 6 -9 -16 4 -27 4 -27 -11 -9 -9
11 -16 16 -16 10 0 -5 -8 0 -17 11 -15 20 -15 20 -10 -2 6 -27 -8 -30 -22 -5
-10 16 -10 15 -11 -3 -1 -20 -1 -20 -15 -1 -15 20 -15 20 -16 0 -1 -10 -5 0
-11 24 -9 41 -28 50 -28 12 0 -23 -16 -34 -37 -26 -12 5 -13 9 -3 21 11 13 10
14 -3 9 -21 -8 -30 -36 -15 -46 9 -5 9 -8 1 -8 -6 0 -18 7 -26 15 -8 8 -17 12
-19 9 -3 -3 -4 8 -2 23 2 15 1 21 -2 11 -3 -9 -11 -19 -19 -22 -12 -4 -12 -1
-3 20 10 20 8 28 -6 42 -17 16 -18 16 -11 -5 4 -14 2 -23 -4 -23 -10 0 -15 17
-14 47 1 15 -13 17 -22 4 -3 -5 -1 -12 5 -16 5 -3 10 -14 9 -23 0 -11 -3 -12
-6 -4 -2 6 -11 12 -19 12 -8 0 -14 10 -14 25 0 15 -6 25 -15 25 -11 0 -12 5
-5 25 6 16 6 25 0 25 -6 0 -10 6 -10 13 0 14 69 52 78 43 3 -3 11 -1 19 5 10
9 13 8 13 -1 0 -10 3 -10 15 0 10 8 15 9 15 2 0 -6 7 -9 15 -6 8 4 15 1 15 -6
0 -10 4 -9 16 1 13 10 17 10 24 0 4 -7 10 -9 13 -4 3 5 20 8 36 7 17 -1 34 3
37 8 4 6 9 6 14 -2 6 -10 14 -10 39 1 17 8 31 17 31 21 0 5 3 7 8 6 11 -4 52
40 52 56 0 8 -11 27 -25 41 -23 26 -28 27 -143 28 -98 2 -121 5 -136 19 -9 10
-14 23 -10 30 5 8 2 9 -9 5 -23 -9 -21 2 3 23 16 14 33 16 78 13 31 -3 61 -9
66 -13 5 -5 15 -3 22 4 26 26 169 30 184 6 6 -9 9 -9 15 0 4 7 17 9 32 5 14
-3 41 -1 59 5 29 10 43 9 77 -5 28 -11 43 -13 45 -6 2 6 8 9 12 6 19 -12 4 37
-18 58 -18 17 -25 19 -31 8 -6 -9 -11 -10 -15 -2 -5 7 -26 9 -60 5 -46 -6 -63
-2 -112 21 -53 25 -70 28 -156 27 -67 -1 -107 4 -125 14 -41 21 -101 17 -161
-11 -73 -34 -84 -31 -40 8 42 37 105 76 93 57 -14 -23 38 11 75 49 30 32 35
34 38 17 4 -18 5 -18 23 5 l20 24 -3 -49 c-2 -44 0 -49 20 -53 24 -3 41 25 44
76 1 14 6 31 11 38 5 7 5 18 1 25 -6 10 -3 9 9 -1 22 -17 22 -7 1 25 -13 18
-14 28 -6 36 12 12 42 -5 42 -26 0 -6 8 -20 16 -31 10 -12 14 -14 12 -5 -4 14
32 40 56 40 12 0 32 27 46 64 7 20 5 23 -18 24 -29 1 -66 14 -94 34 -14 10
-24 10 -50 -4 -29 -15 -39 -16 -82 -4 -53 14 -101 58 -93 85 9 28 30 85 39
106 14 34 12 133 -4 160 -3 6 -6 28 -6 50 -1 22 -3 90 -6 150 -2 61 -5 125 -5
143 0 24 -9 41 -32 63 -17 16 -35 29 -40 29 -5 0 -9 6 -9 14 0 20 -39 65 -40
46 0 -9 -11 -2 -30 18 -16 18 -30 28 -30 22 0 -7 -7 -10 -15 -6 -8 3 -15 0
-15 -7 0 -8 -3 -8 -9 2 -5 7 -14 10 -20 7 -6 -4 -17 -4 -23 1 -20 12 -78 13
-78 1 0 -7 -5 -6 -15 2 -8 6 -20 8 -26 4 -21 -13 -83 -11 -103 2 -10 7 -25 10
-34 7 -11 -5 -13 -3 -7 8 6 11 5 12 -6 2 -7 -7 -19 -13 -27 -13 -11 0 -11 2 0
14 36 38 49 60 45 75 -3 11 3 16 20 17 34 3 37 9 20 34 -14 19 -14 27 0 66 8
24 19 46 23 49 5 3 2 17 -5 32 -12 23 -12 29 0 43 11 13 12 19 3 28 -9 9 -7
15 8 26 16 12 17 19 9 43 -6 15 -10 58 -10 95 0 38 -4 68 -8 68 -5 0 -7 10 -5
23 2 17 9 21 28 19 23 -2 24 -1 8 11 -21 17 -24 47 -5 47 7 0 23 9 35 20 12
11 28 20 36 20 8 0 17 4 20 9 4 5 41 12 84 16 42 4 89 9 104 11 15 2 49 -1 75
-7 69 -16 126 -21 120 -12 -3 4 8 9 24 10 17 1 29 -3 29 -10 0 -7 11 1 23 17
13 16 29 26 34 23 6 -4 13 -3 15 3 3 10 107 40 123 36 6 -2 9 -8 8 -14z
m-1350 -46 c-21 -30 -40 -52 -42 -50 -4 4 68 104 75 104 3 0 -12 -24 -33 -54z
m579 -278 c-7 -7 -12 -8 -12 -2 0 14 12 26 19 19 2 -3 -1 -11 -7 -17z m-77
-428 c3 -5 1 -10 -4 -10 -6 0 -11 5 -11 10 0 6 2 10 4 10 3 0 8 -4 11 -10z
m185 -324 c0 -15 -21 -26 -51 -26 -24 0 -25 16 -1 29 25 15 52 13 52 -3z m80
-52 c0 -20 8 -29 40 -42 22 -9 40 -22 40 -29 0 -7 -6 -10 -14 -7 -8 3 -36 -4
-63 -16 -56 -25 -153 -37 -180 -21 -15 8 -10 10 27 11 25 0 51 4 58 9 8 5 -6
6 -35 4 -26 -3 -66 0 -88 6 -40 10 -40 11 -42 61 -2 59 12 67 21 11 8 -49 27
-65 79 -63 67 3 95 19 117 69 20 46 40 50 40 7z m138 -37 c5 -24 -15 -21 -21
4 -3 13 -1 19 6 16 7 -2 13 -11 15 -20z m-55 -84 c-4 -10 -15 -30 -26 -44 -13
-18 -20 -46 -21 -87 -1 -33 2 -58 6 -56 10 6 9 -4 -1 -31 -5 -11 -4 -28 0 -37
8 -14 6 -16 -8 -11 -16 6 -16 5 -4 -10 9 -11 11 -29 7 -50 -4 -24 -3 -28 5
-17 8 11 9 3 4 -30 -10 -64 -8 -129 4 -144 6 -7 8 -16 4 -20 -4 -3 -6 -29 -4
-56 2 -39 -1 -50 -13 -50 -8 0 -27 -17 -41 -37 -14 -21 -25 -33 -25 -27 0 5 6
16 13 24 12 14 9 12 -60 -31 -26 -16 -41 -6 -23 16 8 10 9 15 1 15 -6 0 -11
-4 -11 -10 0 -5 -5 -10 -11 -10 -6 0 -9 6 -6 14 3 7 0 19 -6 26 -9 10 -9 14 1
17 15 6 16 43 1 43 -5 0 -7 -5 -3 -11 3 -6 0 -15 -7 -20 -23 -14 -30 -10 -20
10 8 14 7 22 -3 30 -7 6 -15 9 -17 7 -2 -2 -5 7 -5 21 -2 17 2 23 12 19 19 -7
18 23 -2 49 -9 13 -12 30 -8 50 5 24 4 28 -7 18 -19 -19 -29 -16 -29 7 0 11 5
20 10 20 6 0 10 8 10 18 -1 15 -2 15 -15 -2 -22 -29 -32 -10 -12 23 16 28 16
29 -4 34 -16 4 -19 2 -13 -15 5 -17 3 -20 -11 -15 -9 4 -21 7 -26 7 -15 0 -10
22 7 35 16 11 16 12 0 18 -10 4 -16 1 -16 -7 0 -7 -6 -18 -13 -24 -10 -8 -16
-6 -25 9 -7 11 -10 24 -7 28 3 5 -2 11 -10 15 -8 3 -12 12 -9 19 3 8 -9 26
-27 42 -33 27 -49 65 -28 65 6 0 9 6 6 13 -3 7 6 23 19 36 13 13 24 18 24 12
0 -6 11 -11 24 -11 14 0 28 -5 31 -11 5 -7 14 -4 26 7 11 9 22 14 25 11 4 -3
15 -2 24 3 10 5 40 12 66 15 27 4 76 16 109 27 33 11 66 21 73 21 6 0 12 4 12
9 0 5 4 7 9 4 4 -3 16 3 26 14 22 25 26 25 18 3z m1308 -287 c-11 -11 -23 -17
-27 -13 -9 9 4 53 21 71 8 8 16 23 17 33 1 10 3 -2 5 -26 3 -35 0 -49 -16 -65z
m-2120 -117 c-6 -16 -10 -18 -10 -7 -1 22 12 55 16 42 2 -6 -1 -22 -6 -35z
m1856 -491 c-3 -8 -6 -5 -6 6 -1 11 2 17 5 13 3 -3 4 -12 1 -19z m-1137 -88
c0 -5 -4 -10 -10 -10 -5 0 -10 5 -10 10 0 6 5 10 10 10 6 0 10 -4 10 -10z
m794 -286 c9 -24 7 -27 -9 -10 -17 17 -19 26 -6 26 5 0 12 -7 15 -16z m-1739
-744 c3 -5 2 -10 -4 -10 -5 0 -13 5 -16 10 -3 6 -2 10 4 10 5 0 13 -4 16 -10z
m40 -18 c-3 -3 -11 0 -18 7 -9 10 -8 11 6 5 10 -3 15 -9 12 -12z m85 -7 c11
-13 10 -14 -4 -9 -9 3 -16 1 -16 -5 0 -6 5 -11 10 -11 6 0 10 -10 9 -22 l0
-23 -10 23 c-5 13 -13 21 -18 17 -6 -3 -7 -13 -4 -22 5 -12 2 -12 -15 3 -26
22 -28 28 -7 20 8 -3 15 -1 15 4 0 6 -7 10 -15 10 -8 0 -15 5 -15 10 0 13 17
13 25 0 4 -6 11 -8 16 -4 5 3 7 10 4 15 -10 15 12 10 25 -6z m-180 -25 c0 -5
-4 -10 -10 -10 -5 0 -10 5 -10 10 0 6 5 10 10 10 6 0 10 -4 10 -10z m8 -52
c-2 -6 -10 -13 -16 -14 -7 -1 -8 0 -2 3 5 2 8 9 4 14 -3 5 0 9 6 9 7 0 10 -5
8 -12z m29 -23 c0 -8 -4 -12 -9 -9 -5 3 -6 10 -3 15 9 13 12 11 12 -6z m-6
-32 c13 -16 12 -17 -3 -4 -10 7 -18 15 -18 17 0 8 8 3 21 -13z m-31 -33 c0 -5
-2 -10 -4 -10 -3 0 -8 5 -11 10 -3 6 -1 10 4 10 6 0 11 -4 11 -10z m1496 -105
c65 -27 74 -41 72 -109 l-2 -61 -3 57 c-4 52 -7 60 -38 84 -51 39 -149 53
-217 31 -63 -20 -76 -15 -16 7 51 19 148 15 204 -9z m-1236 -9 c0 -3 -4 -8
-10 -11 -5 -3 -10 -1 -10 4 0 6 5 11 10 11 6 0 10 -2 10 -4z m1094 -89 l-6
-93 53 -12 c52 -12 119 -49 119 -65 0 -5 -12 0 -27 11 -43 30 -129 54 -165 48
-28 -5 -29 -4 -10 4 21 9 22 15 22 105 0 60 4 95 11 95 7 0 8 -30 3 -93z
m-1499 73 c3 -5 1 -10 -4 -10 -6 0 -11 5 -11 10 0 6 2 10 4 10 3 0 8 -4 11
-10z m-60 -50 c3 -5 1 -10 -4 -10 -6 0 -11 5 -11 10 0 6 2 10 4 10 3 0 8 -4
11 -10z m140 -18 c-3 -3 -11 0 -18 7 -9 10 -8 11 6 5 10 -3 15 -9 12 -12z
m260 -72 c3 -5 1 -10 -4 -10 -6 0 -11 5 -11 10 0 6 2 10 4 10 3 0 8 -4 11 -10z
m-20 -20 c3 -6 -1 -7 -9 -4 -18 7 -21 14 -7 14 6 0 13 -4 16 -10z m132 -20
c-2 -11 -6 -22 -10 -26 -3 -4 -4 6 -1 21 3 19 1 24 -7 19 -8 -4 -9 -3 -5 5 11
16 26 3 23 -19z m-44 5 c-3 -9 -8 -14 -10 -11 -3 3 -2 9 2 15 9 16 15 13 8 -4z
m1294 -17 c-3 -7 -5 -2 -5 12 0 14 2 19 5 13 2 -7 2 -19 0 -25z m-1222 12 c-3
-5 -1 -10 6 -10 7 0 10 -3 6 -6 -9 -9 -28 6 -22 17 4 5 8 9 11 9 3 0 2 -4 -1
-10z m1008 -87 c-7 -101 -13 -106 -13 -11 0 64 4 88 16 88 2 0 0 -35 -3 -77z
m-139 42 c-10 -8 -23 -14 -29 -14 -5 0 -1 6 9 14 11 8 24 15 30 15 5 0 1 -7
-10 -15z m345 -52 c-1 -64 -2 -65 -9 -24 -6 40 -3 91 6 91 2 0 3 -30 3 -67z
m-1556 -8 c-3 -9 -8 -14 -10 -11 -3 3 -2 9 2 15 9 16 15 13 8 -4z m361 -54
c-3 -3 -15 6 -27 18 l-22 24 27 -19 c14 -10 24 -21 22 -23z m-70 20 c3 -5 -1
-11 -9 -15 -8 -3 -17 0 -21 6 -4 7 -3 8 4 4 7 -4 12 -2 12 3 0 13 7 14 14 2z
m-354 -56 c0 -5 -5 -3 -10 5 -8 12 -10 12 -10 1 0 -8 -2 -12 -5 -9 -3 3 -2 13
1 22 5 14 9 15 15 4 5 -7 9 -17 9 -23z m430 9 c0 -2 -9 0 -20 6 -11 6 -20 13
-20 16 0 2 9 0 20 -6 11 -6 20 -13 20 -16z m-365 -22 c-3 -3 -11 0 -18 7 -9
10 -8 11 6 5 10 -3 15 -9 12 -12z m-35 -7 c5 3 12 0 16 -6 4 -7 3 -9 -3 -6 -6
4 -14 0 -17 -9 -3 -8 -10 -13 -15 -10 -5 4 -11 0 -14 -6 -2 -7 -4 -1 -3 14 0
14 4 24 9 21 4 -2 7 2 8 9 0 10 2 10 6 0 2 -6 9 -10 13 -7z m195 -5 c-3 -5
-12 -10 -18 -10 -7 0 -6 4 3 10 19 12 23 12 15 0z m129 2 c2 -4 -5 -9 -17 -9
-17 -2 -19 0 -7 7 18 12 18 12 24 2z m73 -9 c0 -19 -23 -23 -44 -7 -17 14 -17
14 1 7 13 -4 17 -3 12 5 -4 6 1 10 12 9 10 0 19 -7 19 -14z m1181 2 c12 -11
-6 -12 -68 -3 -36 5 -99 7 -140 4 -52 -4 -67 -2 -50 4 25 9 248 5 258 -5z
m-1694 -21 c3 -8 2 -12 -4 -9 -6 3 -10 10 -10 16 0 14 7 11 14 -7z"/>
<path d="M1942 3220 c-19 -12 -31 -16 -27 -10 3 5 2 10 -4 10 -6 0 -17 -13
-26 -30 -19 -37 -28 -39 -14 -3 7 18 6 30 -1 37 -7 7 -10 2 -11 -14 0 -21 -2
-22 -8 -7 -6 17 -9 16 -21 -10 -8 -15 -17 -37 -21 -48 -7 -19 -7 -19 -8 3 -1
26 -13 28 -33 5 -16 -19 -14 -103 3 -103 5 0 6 -26 3 -58 -5 -46 -3 -60 10
-71 13 -11 22 -11 42 -2 14 6 30 9 35 6 5 -4 19 1 31 9 36 25 42 19 19 -20
-12 -19 -21 -37 -21 -38 0 -2 23 -3 51 -2 35 1 53 -3 56 -12 4 -9 -3 -12 -23
-10 -23 2 -29 -1 -30 -19 -1 -15 3 -20 14 -15 8 3 13 1 9 -4 -7 -12 29 -28
111 -48 92 -23 154 -21 211 9 41 20 51 31 62 66 11 33 20 43 39 46 65 9 102
32 101 63 0 3 9 8 20 12 19 8 23 23 23 117 0 39 -5 48 -40 77 -21 19 -44 34
-51 34 -12 0 -67 22 -105 41 -27 13 -32 11 -17 -8 12 -15 12 -16 -6 -8 -36 15
-75 18 -75 6 0 -8 -6 -9 -17 -3 -22 10 -199 8 -232 -2 -20 -7 -23 -5 -18 8 8
20 9 20 -31 -4z m508 -141 c13 -7 13 -8 -1 -9 -16 0 -23 -30 -7 -30 4 0 8 -4
8 -10 0 -6 -9 -6 -24 0 -19 7 -26 5 -30 -7 -5 -11 -10 -12 -19 -5 -6 6 -39 18
-72 28 -60 18 -60 18 -25 24 23 3 38 1 43 -7 4 -7 13 -13 19 -13 6 0 20 -7 30
-17 12 -11 18 -12 18 -4 0 16 -26 42 -34 34 -3 -3 -8 2 -12 11 -3 9 -14 16
-23 16 -12 0 -13 2 -3 9 14 9 107 -5 132 -20z m-163 -60 c58 -28 50 -34 -13
-9 -27 10 -69 23 -94 29 l-45 10 54 -4 c29 -2 73 -14 98 -26z m-108 -32 c14
-17 4 -27 -25 -27 -30 0 -39 16 -17 29 24 14 29 13 42 -2z m113 -46 c7 -30 3
-61 -8 -61 -8 0 -14 -5 -14 -11 0 -6 7 -8 16 -5 17 6 44 -9 44 -25 0 -5 -5 -9
-11 -9 -5 0 -7 6 -3 13 4 6 -2 4 -13 -5 -11 -10 -24 -18 -30 -18 -6 0 -13 -6
-16 -13 -6 -15 -65 -21 -119 -12 -29 5 -35 10 -31 23 5 14 4 15 -8 6 -18 -14
-78 1 -86 22 -3 9 0 20 8 26 8 5 10 11 4 14 -35 15 -38 21 -24 52 15 34 29 33
29 -2 0 -38 32 -58 104 -63 79 -7 91 1 101 62 l6 45 25 -16 c13 -9 25 -19 26
-23z m113 1 c-3 -3 -11 0 -18 7 -9 10 -8 11 6 5 10 -3 15 -9 12 -12z"/>
<path d="M2385 3070 c3 -5 12 -7 20 -3 21 7 19 13 -6 13 -11 0 -18 -4 -14 -10z"/>
<path d="M2235 2851 c-2 -4 1 -8 8 -8 7 0 20 -4 30 -8 10 -4 17 -3 17 4 0 6
-3 11 -7 12 -5 0 -16 2 -25 4 -10 2 -20 0 -23 -4z"/>
<path d="M2120 2829 c0 -5 5 -7 10 -4 6 3 10 8 10 11 0 2 -4 4 -10 4 -5 0 -10
-5 -10 -11z"/>
<path d="M1738 2184 c-6 -5 7 -72 15 -81 5 -4 -3 79 -8 85 -1 1 -4 0 -7 -4z"/>
<path d="M1760 2171 c0 -6 4 -13 10 -16 6 -3 7 1 4 9 -7 18 -14 21 -14 7z"/>
<path d="M1707 2135 c-4 -8 -2 -17 3 -20 6 -4 10 3 10 14 0 25 -6 27 -13 6z"/>
<path d="M1781 2124 c0 -11 3 -14 6 -6 3 7 2 16 -1 19 -3 4 -6 -2 -5 -13z"/>
<path d="M1812 2105 c0 -16 2 -22 5 -12 2 9 2 23 0 30 -3 6 -5 -1 -5 -18z"/>
<path d="M1846 2105 c-3 -9 -6 -22 -5 -28 0 -7 5 -1 10 12 5 13 8 26 5 28 -2
2 -6 -3 -10 -12z"/>
<path d="M2035 2013 c8 -27 -2 -30 -22 -5 -13 15 -14 15 -9 0 3 -9 2 -19 -2
-21 -4 -2 -1 -2 5 -1 7 2 17 -5 22 -14 6 -9 11 -15 11 -12 8 34 7 46 -1 59 -8
12 -9 11 -4 -6z"/>
<path d="M2071 2005 c0 -18 26 -58 32 -49 3 5 -3 21 -14 34 -10 14 -18 21 -18
15z"/>
<path d="M2105 2000 c3 -5 8 -10 11 -10 2 0 4 5 4 10 0 6 -5 10 -11 10 -5 0
-7 -4 -4 -10z"/>
<path d="M1848 1700 c-4 -28 -4 -29 14 -13 21 19 24 43 4 43 -8 0 -16 -13 -18
-30z"/>
<path d="M1225 2870 c-3 -5 -2 -10 4 -10 5 0 13 5 16 10 3 6 2 10 -4 10 -5 0
-13 -4 -16 -10z"/>
<path d="M375 4158 c4 -18 11 -40 16 -48 7 -13 8 -13 9 1 0 32 -13 79 -22 79
-6 0 -7 -14 -3 -32z"/>
<path d="M2832 2970 c-23 -17 -42 -34 -42 -38 0 -5 -14 -22 -30 -38 -39 -37
-57 -66 -36 -58 8 3 26 23 41 45 14 22 31 39 38 36 19 -6 55 -174 50 -237 -7
-114 -22 -145 -91 -187 -32 -20 -34 -23 -14 -23 54 0 85 33 111 120 61 205 76
318 51 384 -12 34 -28 33 -78 -4z"/>
<path d="M744 1322 c-6 -23 -7 -42 -3 -42 11 0 22 43 17 66 -2 10 -8 -1 -14
-24z"/>
<path d="M2530 1323 c0 -21 16 -84 36 -141 43 -126 52 -229 35 -412 -15 -157
-24 -195 -72 -300 -21 -47 -32 -76 -24 -66 11 14 15 16 15 5 0 -28 -31 -146
-64 -244 -18 -55 -36 -115 -40 -133 l-6 -33 160 2 c135 2 160 5 163 18 4 14 5
14 6 0 2 -25 51 -22 51 2 0 11 7 19 15 19 8 0 15 9 15 20 0 14 6 20 23 19 15
-1 17 -3 6 -6 -24 -6 -31 -41 -10 -47 9 -3 4 -4 -11 -2 -16 2 -28 -1 -28 -5 0
-5 8 -10 18 -10 9 -1 24 -2 32 -3 8 0 21 6 28 14 12 13 13 13 8 -2 -5 -16 3
-18 74 -18 72 0 109 11 78 23 -8 3 -6 6 5 6 9 1 17 -6 17 -14 0 -8 7 -15 15
-15 8 0 15 6 15 14 0 8 7 17 16 20 26 10 29 7 8 -8 -10 -8 -15 -18 -11 -22 4
-5 12 -2 17 6 9 13 10 13 10 0 0 -13 1 -13 10 0 7 11 10 11 10 2 0 -7 5 -10
10 -7 6 4 8 11 5 16 -4 5 -1 9 4 9 6 0 11 -6 11 -13 0 -9 13 -14 40 -14 22 0
40 4 40 9 0 4 6 8 14 8 12 0 14 58 14 362 1 200 -2 371 -4 381 -5 17 -24 14
-24 -4 0 -6 5 -7 10 -4 12 7 12 -2 0 -30 -9 -21 -10 -18 -14 47 -1 9 -4 19 -8
24 -15 14 -37 -19 -64 -96 -16 -43 -31 -77 -35 -74 -4 2 6 36 22 75 32 79 33
83 19 74 -6 -4 -7 6 -3 26 4 22 3 30 -5 25 -6 -3 -13 -2 -17 4 -11 18 -31 10
-43 -17 l-12 -28 6 28 c7 40 -6 55 -22 26 l-13 -24 -1 28 c0 15 -4 27 -10 27
-5 0 -10 -9 -10 -19 0 -11 -4 -22 -8 -25 -4 -2 -7 8 -6 22 1 30 -35 57 -48 38
-5 -7 -8 -5 -8 5 0 8 -13 25 -30 37 -85 63 -211 187 -295 291 -51 64 -103 122
-114 129 -20 11 -21 10 -21 -25z m57 -39 c-4 -4 -14 1 -22 12 -22 29 -18 41 7
17 12 -13 19 -26 15 -29z m23 -68 c0 -3 -4 -8 -10 -11 -5 -3 -10 -1 -10 4 0 6
5 11 10 11 6 0 10 -2 10 -4z m47 -41 c-15 -16 -19 -13 -11 9 3 9 10 13 15 10
5 -3 3 -11 -4 -19z m-2 -45 c3 -5 1 -10 -4 -10 -6 0 -11 5 -11 10 0 6 2 10 4
10 3 0 8 -4 11 -10z m5 -54 c0 -2 -7 -7 -16 -10 -8 -3 -12 -2 -9 4 6 10 25 14
25 6z m-10 -41 c-7 -9 -15 -13 -19 -10 -3 3 1 10 9 15 21 14 24 12 10 -5z m40
11 c0 -3 -4 -8 -10 -11 -5 -3 -10 -1 -10 4 0 6 5 11 10 11 6 0 10 -2 10 -4z
m-30 -86 c-6 -11 -12 -20 -14 -20 -2 0 -2 9 1 20 3 11 9 20 15 20 5 0 4 -9 -2
-20z m8 -50 c-7 -10 -14 -17 -17 -15 -4 4 18 35 25 35 2 0 -1 -9 -8 -20z m12
-35 c-7 -8 -16 -15 -21 -15 -5 0 -1 8 9 18 20 22 31 19 12 -3z m34 0 c-4 -8
-11 -15 -16 -15 -6 0 -5 6 2 15 7 8 14 15 16 15 2 0 1 -7 -2 -15z m9 -50 c-3
-9 -8 -14 -10 -11 -3 3 -2 9 2 15 9 16 15 13 8 -4z m418 -28 c-10 -9 -11 -8
-5 6 3 10 9 15 12 12 3 -3 0 -11 -7 -18z m-65 -13 c-4 -9 -9 -15 -11 -12 -3 3
-3 13 1 22 4 9 9 15 11 12 3 -3 3 -13 -1 -22z m84 -14 c-16 -40 -23 -33 -9 9
6 18 14 30 17 27 2 -3 -1 -19 -8 -36z m-180 20 c0 -5 -5 -10 -11 -10 -5 0 -7
5 -4 10 3 6 8 10 11 10 2 0 4 -4 4 -10z m-290 -18 c0 -5 -7 -9 -15 -9 -8 0
-12 4 -9 9 3 4 9 8 15 8 5 0 9 -4 9 -8z m61 -25 c-10 -9 -11 -8 -5 6 3 10 9
15 12 12 3 -3 0 -11 -7 -18z m39 13 c0 -5 -5 -10 -11 -10 -5 0 -7 5 -4 10 3 6
8 10 11 10 2 0 4 -4 4 -10z m315 -28 c-10 -10 -16 -12 -13 -7 3 6 8 19 13 30
5 14 9 16 12 7 3 -8 -3 -21 -12 -30z m122 2 c-6 -20 -13 -32 -14 -27 -4 11 14
63 21 63 2 0 -1 -16 -7 -36z m-69 -20 c-13 -25 -24 -41 -26 -36 -3 9 36 82 44
82 2 0 -6 -21 -18 -46z m-125 11 c-3 -9 -8 -14 -10 -11 -3 3 -2 9 2 15 9 16
15 13 8 -4z m28 -12 c-12 -20 -14 -14 -5 12 4 9 9 14 11 11 3 -2 0 -13 -6 -23z
m-260 3 c5 3 9 0 9 -6 0 -15 -23 -7 -26 8 -1 7 0 8 3 2 2 -5 9 -8 14 -4z m122
-1 c-3 -9 -8 -14 -10 -11 -3 3 -2 9 2 15 9 16 15 13 8 -4z m-193 1 c0 -2 -11
-11 -25 -20 -14 -9 -25 -12 -25 -6 0 6 10 15 23 20 27 11 27 11 27 6z m511
-33 c-12 -20 -14 -14 -5 12 4 9 9 14 11 11 3 -2 0 -13 -6 -23z m-498 -3 c-3
-12 -8 -19 -11 -16 -5 6 5 36 12 36 2 0 2 -9 -1 -20z m27 0 c-6 -11 -13 -20
-16 -20 -2 0 0 9 6 20 6 11 13 20 16 20 2 0 0 -9 -6 -20z m313 5 c-3 -9 -8
-14 -10 -11 -3 3 -2 9 2 15 9 16 15 13 8 -4z m179 -35 c-9 -27 -17 -48 -19
-46 -6 6 21 96 28 96 4 0 0 -22 -9 -50z m-548 25 c-4 -8 -13 -15 -22 -15 -13
0 -12 3 4 15 24 18 25 18 18 0z m83 1 c-3 -8 -1 -17 6 -19 7 -3 2 -4 -10 -4
-17 1 -20 4 -12 19 12 21 24 24 16 4z m214 -9 c-10 -9 -11 -8 -5 6 3 10 9 15
12 12 3 -3 0 -11 -7 -18z m186 -24 c-8 -15 -13 -40 -12 -55 2 -16 -1 -30 -6
-33 -5 -3 -7 11 -5 32 5 45 28 112 33 96 2 -6 -2 -24 -10 -40z m43 13 c0 -3
-4 -8 -10 -11 -5 -3 -10 -1 -10 4 0 6 5 11 10 11 6 0 10 -2 10 -4z m-354 -24
c1 -7 0 -8 -3 -2 -2 5 -9 8 -14 4 -5 -3 -9 0 -9 6 0 15 23 7 26 -8z m44 9 c0
-5 -7 -12 -16 -15 -14 -5 -15 -4 -4 9 14 17 20 19 20 6z m34 -6 c-4 -8 -11
-15 -16 -15 -6 0 -5 6 2 15 7 8 14 15 16 15 2 0 1 -7 -2 -15z m36 7 c0 -5 -7
-17 -15 -28 -14 -18 -14 -17 -4 9 12 27 19 34 19 19z m22 -14 c-7 -7 -12 -8
-12 -2 0 14 12 26 19 19 2 -3 -1 -11 -7 -17z m48 19 c0 -2 -9 -14 -20 -27 -22
-25 -26 -20 -10 11 9 16 30 27 30 16z m-316 -38 c-13 -26 -14 -33 -2 -40 17
-11 -1 -10 -27 1 -11 5 -14 9 -8 9 7 1 19 15 28 31 9 17 18 30 21 30 2 0 -3
-14 -12 -31z m39 14 c-5 -12 -3 -14 8 -8 8 5 11 4 6 0 -10 -11 -37 -15 -37 -6
0 7 21 31 27 31 1 0 -1 -7 -4 -17z m283 -11 c-17 -16 -18 -16 -5 5 7 12 15 20
18 17 3 -2 -3 -12 -13 -22z m-361 8 c-3 -5 -14 -10 -23 -9 -14 0 -13 2 3 9 27
11 27 11 20 0z m398 -5 c-3 -9 -8 -14 -10 -11 -3 3 -2 9 2 15 9 16 15 13 8 -4z
m104 -7 c-3 -8 -6 -5 -6 6 -1 11 2 17 5 13 3 -3 4 -12 1 -19z m-369 4 c14 12
14 10 2 -12 -8 -15 -15 -20 -18 -12 -2 6 -8 10 -13 7 -5 -4 -6 2 -2 11 4 12 8
14 11 6 3 -10 7 -10 20 0z m292 -2 c0 -5 -5 -10 -11 -10 -5 0 -7 5 -4 10 3 6
8 10 11 10 2 0 4 -4 4 -10z m-290 -61 c-16 -30 -30 -50 -30 -46 0 13 51 109
56 105 2 -3 -9 -29 -26 -59z m73 46 c-3 -9 -8 -14 -10 -11 -3 3 -2 9 2 15 9
16 15 13 8 -4z m357 11 c0 -3 -4 -8 -10 -11 -5 -3 -10 -1 -10 4 0 6 5 11 10
11 6 0 10 -2 10 -4z m-496 -38 c-6 -20 -5 -21 10 -9 14 12 16 12 10 -3 -3 -9
-10 -16 -14 -16 -14 0 -21 17 -14 34 9 24 16 19 8 -6z m246 18 c0 -3 -4 -8
-10 -11 -5 -3 -10 -1 -10 4 0 6 5 11 10 11 6 0 10 -2 10 -4z m185 -26 c-4 -12
-9 -19 -12 -17 -3 3 -2 15 2 27 4 12 9 19 12 17 3 -3 2 -15 -2 -27z m-332 5
c-3 -9 -8 -14 -10 -11 -3 3 -2 9 2 15 9 16 15 13 8 -4z m21 -22 c-4 -16 -13
-39 -21 -53 -13 -24 -14 -24 -7 10 6 30 24 70 32 70 1 0 -1 -12 -4 -27z m25
-12 c-6 -18 -14 -30 -17 -27 -2 3 1 19 8 36 16 40 23 33 9 -9z m35 -8 c-34
-60 -50 -78 -33 -38 14 33 48 85 55 85 3 0 -7 -21 -22 -47z m74 22 c-6 -14
-13 -23 -15 -21 -5 5 15 46 22 46 3 0 -1 -11 -7 -25z m93 -6 c-5 -13 -10 -19
-10 -12 -1 15 10 45 15 40 3 -2 0 -15 -5 -28z m-136 -18 c-21 -43 -29 -39 -8
4 9 19 18 33 21 31 2 -2 -4 -18 -13 -35z m236 12 c-12 -20 -14 -14 -5 12 4 9
9 14 11 11 3 -2 0 -13 -6 -23z m-170 -10 c-12 -20 -14 -14 -5 12 4 9 9 14 11
11 3 -2 0 -13 -6 -23z m89 -10 c-11 -17 -11 -17 -6 0 3 10 6 24 7 30 0 9 2 9
5 0 3 -7 0 -20 -6 -30z m-400 17 c0 -5 -2 -10 -4 -10 -3 0 -8 5 -11 10 -3 6
-1 10 4 10 6 0 11 -4 11 -10z m120 2 c0 -5 -7 -17 -15 -28 -14 -18 -14 -17 -4
9 12 27 19 34 19 19z m311 -19 c-12 -20 -14 -14 -5 12 4 9 9 14 11 11 3 -2 0
-13 -6 -23z m-376 7 c3 -5 1 -10 -4 -10 -6 0 -11 5 -11 10 0 6 2 10 4 10 3 0
8 -4 11 -10z m460 0 c3 -5 1 -10 -4 -10 -6 0 -11 5 -11 10 0 6 2 10 4 10 3 0
8 -4 11 -10z m-148 -32 c-3 -8 -6 -5 -6 6 -1 11 2 17 5 13 3 -3 4 -12 1 -19z
m-367 8 c0 -3 -4 -8 -10 -11 -5 -3 -10 -1 -10 4 0 6 5 11 10 11 6 0 10 -2 10
-4z m248 -23 c-16 -39 -32 -54 -18 -19 12 33 19 46 25 46 3 0 -1 -12 -7 -27z
m242 17 c0 -5 -5 -10 -11 -10 -5 0 -7 5 -4 10 3 6 8 10 11 10 2 0 4 -4 4 -10z
m-533 -6 c-3 -3 -12 -4 -19 -1 -8 3 -5 6 6 6 11 1 17 -2 13 -5z m93 2 c0 -3
-4 -8 -10 -11 -5 -3 -10 -1 -10 4 0 6 5 11 10 11 6 0 10 -2 10 -4z m101 -23
c-12 -20 -14 -14 -5 12 4 9 9 14 11 11 3 -2 0 -13 -6 -23z m140 4 c-10 -9 -11
-8 -5 6 3 10 9 15 12 12 3 -3 0 -11 -7 -18z m169 19 c0 -2 -8 -10 -17 -17 -16
-13 -17 -12 -4 4 13 16 21 21 21 13z m-360 -21 c-7 -9 -15 -13 -19 -10 -3 3 1
10 9 15 21 14 24 12 10 -5z m114 -9 c-3 -9 -10 -16 -15 -16 -6 0 -5 9 1 21 13
24 24 20 14 -5z m116 20 c0 -3 -4 -8 -10 -11 -5 -3 -10 -1 -10 4 0 6 5 11 10
11 6 0 10 -2 10 -4z m51 -27 c-5 -13 -10 -19 -10 -12 -1 15 10 45 15 40 3 -2
0 -15 -5 -28z m-29 -1 c-7 -7 -12 -8 -12 -2 0 14 12 26 19 19 2 -3 -1 -11 -7
-17z m-312 2 c0 -5 -4 -10 -10 -10 -5 0 -10 5 -10 10 0 6 5 10 10 10 6 0 10
-4 10 -10z m95 -18 c-6 -7 -34 11 -29 19 3 5 11 3 19 -4 7 -6 12 -13 10 -15z
m-128 3 c0 -8 -4 -12 -9 -9 -5 3 -6 10 -3 15 9 13 12 11 12 -6z m93 -28 c0 -5
4 -6 8 -3 4 2 13 1 20 -3 9 -5 9 -17 0 -46 -6 -22 -13 -34 -15 -27 -7 18 -21
15 -26 -5 -2 -10 -3 -3 -2 15 3 34 15 58 15 29 0 -9 5 -19 12 -23 8 -5 9 -2 5
9 -3 9 -2 19 4 22 5 4 7 11 3 16 -3 5 -9 7 -14 4 -8 -5 -60 39 -60 51 0 8 49
-30 50 -39z m172 21 c-7 -7 -12 -8 -12 -2 0 14 12 26 19 19 2 -3 -1 -11 -7
-17z m31 5 c-4 -11 -3 -14 5 -9 7 4 12 3 12 -3 0 -5 -8 -9 -19 -8 -12 1 -17 7
-13 19 2 10 8 18 13 18 5 0 5 -7 2 -17z m212 -12 c-3 -6 -11 -11 -16 -11 -5 0
-4 6 3 14 14 16 24 13 13 -3z m-575 -6 c0 -2 -9 -3 -19 -2 -11 0 -18 5 -15 9
4 6 34 0 34 -7z m421 -31 c-5 -16 -10 -21 -10 -12 -1 18 10 51 15 45 2 -1 -1
-16 -5 -33z m49 32 c0 -2 -8 -10 -17 -17 -16 -13 -17 -12 -4 4 13 16 21 21 21
13z m-435 -16 c3 -6 -1 -7 -9 -4 -18 7 -21 14 -7 14 6 0 13 -4 16 -10z m52 -4
c0 -8 -8 -11 -21 -8 -19 5 -19 6 0 13 10 4 19 8 20 8 0 1 1 -5 1 -13z m51 -4
c2 -7 -1 -12 -8 -12 -6 0 -8 5 -5 10 3 6 1 10 -4 10 -6 0 -11 -5 -11 -12 0 -6
-3 -9 -6 -5 -9 9 6 29 19 24 6 -2 13 -9 15 -15z m111 4 c9 -11 6 -12 -15 -8
-19 3 -22 7 -12 13 16 11 14 11 27 -5z m45 -1 c-4 -8 -10 -15 -15 -15 -4 0 -6
7 -3 15 4 8 10 15 15 15 4 0 6 -7 3 -15z m23 -7 c-3 -8 -6 -5 -6 6 -1 11 2 17
5 13 3 -3 4 -12 1 -19z m220 -7 c-7 -2 -21 -8 -32 -14 -16 -8 -15 -4 5 14 15
15 28 20 32 14 4 -5 2 -12 -5 -14z m-197 -21 c-11 -22 -23 -40 -25 -40 -3 0 4
18 15 40 11 22 23 40 25 40 3 0 -4 -18 -15 -40z m35 0 c-9 -18 -19 -30 -22
-27 -3 3 3 19 13 36 23 39 30 32 9 -9z m-375 26 c0 -2 -7 -7 -16 -10 -8 -3
-12 -2 -9 4 6 10 25 14 25 6z m477 -21 c-4 -8 -11 -15 -17 -15 -6 0 -6 7 2 20
14 22 24 19 15 -5z m-266 -8 c-10 -9 -11 -8 -5 6 3 10 9 15 12 12 3 -3 0 -11
-7 -18z m369 18 c0 -2 -13 -11 -30 -20 -38 -19 -40 -11 -2 9 31 17 32 18 32
11z m-563 -11 c-3 -3 -12 -4 -19 -1 -8 3 -5 6 6 6 11 1 17 -2 13 -5z m110 -26
c-3 -7 -5 -2 -5 12 0 14 2 19 5 13 2 -7 2 -19 0 -25z m-27 7 c0 -1 -10 -5 -23
-7 -14 -3 -24 0 -24 7 0 7 10 10 24 7 13 -2 23 -6 23 -7z m294 -9 c-3 -9 -10
-16 -15 -16 -5 0 -4 9 3 20 14 22 21 20 12 -4z m40 9 c-4 -8 -11 -15 -16 -15
-6 0 -5 6 2 15 7 8 14 15 16 15 2 0 1 -7 -2 -15z m-405 -8 c8 -10 7 -14 -2
-14 -6 0 -23 -3 -37 -6 -20 -6 -19 -4 5 7 25 12 27 14 10 19 -15 3 -16 5 -4 6
9 0 22 -5 28 -12z m271 7 c0 -8 -19 -13 -24 -6 -3 5 1 9 9 9 8 0 15 -2 15 -3z
m285 -4 c-3 -5 -11 -10 -16 -10 -6 0 -7 5 -4 10 3 6 11 10 16 10 6 0 7 -4 4
-10z m-100 -10 c-3 -5 -11 -10 -16 -10 -6 0 -7 5 -4 10 3 6 11 10 16 10 6 0 7
-4 4 -10z m-281 -15 c-4 -8 -10 -15 -15 -15 -4 0 -6 7 -3 15 4 8 10 15 15 15
4 0 6 -7 3 -15z m238 3 c-7 -7 -18 -13 -25 -13 -7 0 -11 -9 -9 -20 4 -20 3
-20 -11 0 -14 18 -14 21 1 26 9 4 20 5 24 3 4 -3 9 0 13 6 3 5 9 10 13 10 3 0
0 -6 -6 -12z m78 -2 c0 -2 -7 -6 -15 -10 -8 -3 -15 -1 -15 4 0 6 7 10 15 10 8
0 15 -2 15 -4z m-505 -16 c3 -6 -4 -10 -17 -10 -18 0 -20 2 -8 10 19 12 18 12
25 0z m115 -33 c8 -2 3 -3 -12 -1 -22 3 -28 -1 -28 -16 0 -11 6 -20 13 -20 8
0 7 -3 -3 -9 -8 -6 -18 -7 -23 -4 -5 3 -13 -1 -18 -8 -13 -22 -11 -29 9 -23
14 5 15 4 2 -5 -21 -15 -25 -14 -38 14 -7 15 -8 25 -2 26 6 1 15 3 20 4 6 1
15 3 20 4 6 0 10 10 10 22 0 14 -5 19 -14 16 -10 -4 -13 -1 -10 8 3 8 12 11
20 8 8 -3 14 1 14 8 0 9 4 8 13 -3 6 -9 19 -18 27 -21z m-5 23 c3 -5 1 -10 -4
-10 -6 0 -11 5 -11 10 0 6 2 10 4 10 3 0 8 -4 11 -10z m75 -10 c-8 -5 -19 -10
-25 -10 -5 0 -3 5 5 10 8 5 20 10 25 10 6 0 3 -5 -5 -10z m182 -12 c-7 -7 -12
-8 -12 -2 0 14 12 26 19 19 2 -3 -1 -11 -7 -17z m-365 6 c-3 -3 -12 -4 -19 -1
-8 3 -5 6 6 6 11 1 17 -2 13 -5z m560 -11 c0 -10 -5 -26 -12 -36 -11 -15 -13
-16 -18 -3 -4 9 -1 15 6 13 7 -1 13 5 13 13 3 25 4 30 7 30 2 0 4 -8 4 -17z
m-347 -14 c0 -5 -4 -9 -8 -9 -5 0 -9 7 -9 15 0 8 4 12 9 9 4 -3 8 -9 8 -15z
m84 -11 c7 -5 4 -8 -6 -8 -12 0 -18 7 -17 23 0 15 2 17 6 7 3 -8 11 -18 17
-22z m16 22 c0 -5 -2 -10 -4 -10 -3 0 -8 5 -11 10 -3 6 -1 10 4 10 6 0 11 -4
11 -10z m-317 -7 c-7 -2 -19 -2 -25 0 -7 3 -2 5 12 5 14 0 19 -2 13 -5z m182
-32 c5 -13 4 -14 -6 -3 -7 6 -23 12 -36 12 -13 0 -23 4 -23 8 0 15 59 0 65
-17z m78 22 c-7 -2 -19 -2 -25 0 -7 3 -2 5 12 5 14 0 19 -2 13 -5z m254 -6 c0
-8 -6 -14 -13 -14 -7 0 -10 6 -7 14 7 17 20 17 20 0z m-377 -21 c0 -2 -7 -9
-15 -16 -13 -11 -14 -10 -9 4 5 14 24 23 24 12z m30 -6 c0 -5 -4 -10 -10 -10
-5 0 -10 5 -10 10 0 6 5 10 10 10 6 0 10 -4 10 -10z m140 0 c0 -5 -5 -10 -11
-10 -5 0 -7 5 -4 10 3 6 8 10 11 10 2 0 4 -4 4 -10z m134 -5 c-4 -8 -8 -15
-10 -15 -2 0 -4 7 -4 15 0 8 4 15 10 15 5 0 7 -7 4 -15z m90 -3 c2 -4 -5 -9
-17 -9 -17 -2 -19 0 -7 7 18 12 18 12 24 2z m-439 -11 c-3 -5 3 -11 12 -13 15
-3 15 -5 -3 -10 -17 -4 -21 -2 -19 11 5 22 4 21 11 21 3 0 3 -4 -1 -9z m138 2
c-7 -2 -19 -2 -25 0 -7 3 -2 5 12 5 14 0 19 -2 13 -5z m-86 -25 c-3 -8 -6 -5
-6 6 -1 11 2 17 5 13 3 -3 4 -12 1 -19z m411 8 c-7 -8 -15 -12 -17 -11 -5 6
10 25 20 25 5 0 4 -6 -3 -14z m-335 -3 c-7 -2 -19 -2 -25 0 -7 3 -2 5 12 5 14
0 19 -2 13 -5z m24 -7 c-3 -8 -1 -17 6 -20 7 -2 4 -5 -5 -5 -10 -1 -18 1 -18
3 0 10 13 36 17 36 3 0 3 -6 0 -14z m198 4 c3 -5 1 -10 -4 -10 -6 0 -11 5 -11
10 0 6 2 10 4 10 3 0 8 -4 11 -10z m75 -5 c0 -9 -9 -15 -22 -14 -17 1 -19 2
-5 6 9 2 17 9 17 14 0 5 2 9 5 9 3 0 5 -7 5 -15z m-220 -7 c0 -11 -12 -10 -30
2 -12 7 -10 9 8 7 12 0 22 -5 22 -9z m50 2 c0 -5 -10 -10 -22 -9 -22 0 -22 1
-3 9 11 5 21 9 23 9 1 1 2 -3 2 -9z m230 6 c0 -2 -7 -9 -15 -16 -13 -11 -14
-10 -9 4 5 14 24 23 24 12z m-368 -13 c-6 -2 -10 -9 -6 -14 3 -5 -2 -9 -10 -9
-9 0 -16 -4 -16 -10 0 -5 -9 -10 -20 -10 -11 0 -20 4 -20 10 0 5 8 6 18 3 15
-6 16 -5 2 12 -14 16 -13 17 8 11 13 -5 22 -3 22 3 0 6 8 11 18 10 10 0 12 -3
4 -6z m-187 -21 c-3 -3 -11 0 -18 7 -9 10 -8 11 6 5 10 -3 15 -9 12 -12z m83
11 c-11 -3 -18 -15 -19 -31 0 -15 -3 -21 -6 -14 -2 6 -9 12 -14 12 -6 0 -7 -5
-3 -12 4 -7 3 -8 -5 -4 -12 8 -11 37 1 46 4 3 20 6 35 7 15 0 20 -1 11 -4z
m359 1 c-3 -3 -12 -4 -19 -1 -8 3 -5 6 6 6 11 1 17 -2 13 -5z m113 -8 c0 -2
-8 -10 -17 -17 -16 -13 -17 -12 -4 4 13 16 21 21 21 13z m-281 -22 c2 -2 -3
-4 -12 -4 -9 0 -17 -4 -17 -10 0 -5 -10 -10 -22 -11 -18 0 -19 -2 -7 -7 14 -6
15 -9 3 -20 -12 -11 -14 -10 -14 4 0 10 -5 14 -15 10 -8 -3 -15 -1 -15 4 0 6
7 10 15 10 13 0 19 11 16 32 0 6 61 -1 68 -8z m158 -16 c-3 -7 -5 -2 -5 12 0
14 2 19 5 13 2 -7 2 -19 0 -25z m-431 -3 c-9 -9 -16 -13 -16 -8 0 12 22 34 28
28 2 -2 -3 -11 -12 -20z m194 13 c0 -4 -7 -8 -15 -8 -8 0 -15 4 -15 8 0 5 7 9
15 9 8 0 15 -4 15 -9z m127 -4 c-3 -3 -12 -4 -19 -1 -8 3 -5 6 6 6 11 1 17 -2
13 -5z m-160 -24 c3 -10 2 -11 -4 -4 -4 6 -15 14 -23 17 -11 5 -9 6 4 4 11 -1
21 -9 23 -17z m203 5 c0 -8 -5 -15 -11 -15 -5 0 -8 4 -5 9 4 5 0 12 -6 14 -8
3 -6 6 5 6 9 1 17 -6 17 -14z m174 0 c-4 -8 -8 -15 -10 -15 -2 0 -4 7 -4 15 0
8 4 15 10 15 5 0 7 -7 4 -15z m-214 -5 c12 -7 10 -9 -8 -7 -12 0 -22 5 -22 9
0 11 12 10 30 -2z m190 0 c0 -5 -2 -10 -4 -10 -3 0 -8 5 -11 10 -3 6 -1 10 4
10 6 0 11 -4 11 -10z m-547 -7 c-7 -2 -19 -2 -25 0 -7 3 -2 5 12 5 14 0 19 -2
13 -5z m117 -13 c0 -5 -5 -10 -11 -10 -5 0 -7 5 -4 10 3 6 8 10 11 10 2 0 4
-4 4 -10z m-110 -8 c0 -4 -9 -8 -19 -8 -11 0 -17 4 -15 8 3 4 12 8 20 8 8 0
14 -4 14 -8z m77 -11 c1 -11 -5 -22 -13 -25 -8 -3 -14 -1 -14 4 0 6 5 10 10
10 6 0 9 3 9 8 -2 10 0 22 4 22 1 0 3 -9 4 -19z m143 15 c0 -3 -4 -8 -10 -11
-5 -3 -10 -1 -10 4 0 6 5 11 10 11 6 0 10 -2 10 -4z m57 -2 c-3 -3 -12 -4 -19
-1 -8 3 -5 6 6 6 11 1 17 -2 13 -5z m87 -5 c-4 -7 -44 0 -44 7 0 2 11 3 24 2
14 -1 23 -5 20 -9z m146 1 c0 -5 -5 -10 -11 -10 -5 0 -7 5 -4 10 3 6 8 10 11
10 2 0 4 -4 4 -10z m-213 -22 c2 -18 0 -20 -7 -8 -6 9 -13 11 -17 5 -9 -12
-73 -15 -73 -4 0 9 37 22 47 16 6 -3 45 7 48 12 1 1 2 -9 2 -21z m-300 -4 c-3
-3 -12 -4 -19 -1 -8 3 -5 6 6 6 11 1 17 -2 13 -5z"/>
<path d="M2945 110 c-3 -5 -1 -10 4 -10 6 0 11 5 11 10 0 6 -2 10 -4 10 -3 0
-8 -4 -11 -10z"/>
<path d="M325 849 c-4 -6 -5 -12 -2 -15 2 -3 7 2 10 11 7 17 1 20 -8 4z"/>
<path d="M428 853 c7 -3 16 -2 19 1 4 3 -2 6 -13 5 -11 0 -14 -3 -6 -6z"/>
<path d="M488 853 c7 -3 16 -2 19 1 4 3 -2 6 -13 5 -11 0 -14 -3 -6 -6z"/>
<path d="M3200 794 c0 -8 5 -12 10 -9 6 4 8 11 5 16 -9 14 -15 11 -15 -7z"/>
<path d="M1199 263 c-23 -38 -49 -78 -57 -90 -8 -13 -12 -23 -9 -23 3 0 27 35
54 78 62 97 65 102 59 102 -2 0 -23 -30 -47 -67z"/>
<path d="M2244 28 l-19 -23 23 19 c12 11 22 21 22 23 0 8 -8 2 -26 -19z"/>
<path d="M605 19 c-4 -6 -5 -12 -2 -15 2 -3 7 2 10 11 7 17 1 20 -8 4z"/>
</g>
</svg>
