<?xml version="1.0" standalone="no"?>
<!DOCTYPE svg PUBLIC "-//W3C//DTD SVG 20010904//EN"
 "http://www.w3.org/TR/2001/REC-SVG-20010904/DTD/svg10.dtd">
<svg version="1.0" xmlns="http://www.w3.org/2000/svg"
 width="336.000000pt" height="512.000000pt" viewBox="0 0 336.000000 512.000000"
 preserveAspectRatio="xMidYMid meet">

<g transform="translate(0.000000,512.000000) scale(0.100000,-0.100000)"
fill="#000000" stroke="none">
<path d="M2005 4923 c69 -20 178 -67 165 -71 -5 -2 -31 3 -57 12 -90 29 -158
40 -278 41 -136 2 -292 12 -304 19 -21 13 -229 -40 -323 -83 -82 -37 -203
-118 -185 -124 9 -4 9 -6 -1 -6 -7 -1 -11 -5 -8 -10 3 -5 -9 -16 -27 -25 -50
-25 -94 -65 -80 -74 7 -4 -7 -21 -40 -47 -57 -43 -268 -263 -275 -286 -3 -8
-10 -18 -16 -22 -7 -5 -2 -7 11 -4 15 3 20 1 16 -9 -3 -7 -10 -12 -15 -11 -6
1 -13 -4 -16 -12 -3 -9 0 -11 8 -6 9 6 9 3 1 -13 -6 -11 -17 -22 -26 -25 -8
-4 -12 -13 -9 -22 3 -8 2 -15 -3 -15 -6 0 -27 -36 -47 -79 -28 -59 -39 -97
-43 -152 -5 -57 -3 -70 6 -64 10 6 12 0 7 -23 -5 -19 -2 -34 6 -43 15 -16 38
-78 38 -102 0 -20 16 -23 23 -4 3 6 6 -16 6 -51 1 -34 7 -77 15 -95 7 -18 16
-61 20 -94 8 -72 43 -270 51 -282 3 -5 7 -25 9 -44 l5 -36 -34 15 c-62 26 -88
18 -133 -40 -31 -40 -30 -140 4 -282 14 -60 29 -128 34 -152 11 -51 23 -74 64
-126 l30 -39 23 49 c13 27 23 56 23 63 0 11 3 12 11 4 8 -8 4 -26 -15 -68 -14
-32 -26 -65 -26 -75 0 -10 16 -32 35 -49 30 -26 44 -31 85 -31 27 0 51 4 54 9
9 15 -24 234 -43 286 -27 71 -44 194 -38 262 32 331 43 405 70 465 20 44 47
71 47 47 0 -6 5 -7 12 -3 8 5 9 2 5 -9 -5 -14 -3 -15 13 -4 11 6 18 18 15 24
-7 19 2 16 26 -8 11 -11 18 -27 15 -34 -3 -9 0 -12 9 -9 35 14 21 -89 -15
-111 -22 -13 -42 -71 -45 -125 -2 -31 -10 -78 -19 -104 -19 -55 -20 -99 -5
-129 15 -26 19 -167 6 -184 -14 -20 -16 -161 -2 -243 10 -55 10 -90 3 -130 -6
-31 -8 -130 -6 -225 5 -187 9 -201 84 -306 l36 -49 3 -147 c1 -82 6 -174 10
-207 7 -53 6 -58 -10 -55 -20 4 -30 28 -41 104 -7 47 -8 48 -15 20 -12 -52 -9
-128 7 -170 9 -22 20 -62 24 -90 15 -88 25 -110 46 -107 18 2 18 2 2 -8 -19
-12 -25 -50 -7 -50 5 0 7 5 3 12 -5 8 0 9 15 5 17 -4 21 -2 17 9 -8 21 21 29
43 13 10 -8 61 -46 112 -86 97 -74 285 -187 423 -254 67 -33 90 -39 144 -39
69 0 65 5 46 -60 -6 -24 -41 -26 -109 -8 -36 10 -45 16 -42 30 9 33 -15 18
-95 -59 -94 -92 -300 -393 -269 -393 6 0 15 9 21 20 6 11 19 20 28 20 37 0
121 -116 147 -203 l12 -42 215 -3 216 -2 -2 52 c-1 54 32 178 56 211 13 17 15
17 48 1 47 -23 92 -63 157 -139 77 -90 119 -93 173 -13 21 31 20 31 -12 -5
-18 -20 -38 -37 -45 -37 -6 0 -33 34 -60 76 -174 274 -249 381 -327 464 -85
91 -98 110 -73 110 14 0 174 92 287 165 120 77 222 158 280 221 56 61 123 188
135 257 8 44 -1 107 -17 107 -5 0 -7 -7 -4 -16 12 -32 -14 -149 -52 -224 -64
-130 -212 -259 -439 -387 -38 -20 -92 -52 -122 -70 -30 -18 -66 -33 -79 -33
-31 0 -100 37 -129 69 l-21 24 39 20 c21 10 37 23 34 27 -3 5 3 15 13 22 20
14 37 47 33 63 -2 6 -4 17 -5 25 -2 8 -14 21 -28 27 -45 23 -49 35 -26 82 12
24 32 47 45 52 13 5 21 14 18 19 -4 6 -3 10 2 9 23 -4 43 2 38 12 -8 12 15 32
70 58 54 25 79 34 88 33 4 -1 7 2 7 8 0 5 17 17 38 27 20 9 58 39 85 65 26 26
54 48 63 48 8 0 12 5 9 10 -3 5 -2 10 4 10 6 0 8 6 5 13 -2 7 5 22 16 32 20
19 21 18 15 -1 -3 -10 2 -4 12 14 11 22 22 31 32 27 9 -3 13 -3 9 0 -4 4 3 18
15 32 34 38 187 188 197 191 5 2 11 -16 13 -40 3 -42 4 -42 5 9 2 43 9 62 36
100 65 91 91 191 102 385 l7 127 42 -6 c39 -5 46 -2 81 31 l39 36 -50 -26
c-42 -22 -54 -24 -77 -15 -38 14 -38 23 6 214 16 72 54 167 65 167 4 0 18 -11
30 -24 27 -29 24 -60 -7 -64 -14 -2 -22 -10 -22 -24 0 -11 -14 -38 -31 -60
-41 -51 -27 -64 16 -15 21 24 38 35 48 31 43 -16 107 73 107 150 0 53 -28 91
-77 103 l-33 8 41 68 c22 37 44 67 48 67 20 0 65 -218 56 -274 -10 -57 -43
-113 -82 -137 -18 -11 -33 -27 -33 -35 0 -19 6 -18 45 12 43 32 81 111 90 184
4 30 14 82 22 114 15 60 11 152 -8 189 -13 22 -50 22 -75 -2 -10 -10 -44 -52
-74 -94 -30 -42 -55 -75 -56 -74 -1 1 2 36 7 77 7 68 11 78 41 104 28 24 29
27 10 21 -23 -7 -23 -6 -8 29 8 20 24 91 36 158 46 271 63 359 72 364 4 3 8
17 8 32 0 15 10 59 21 97 37 126 44 169 44 245 0 65 -5 85 -33 142 -18 38 -49
81 -70 99 -26 22 -30 28 -12 19 14 -7 46 -33 73 -58 26 -26 47 -41 47 -35 0
16 -91 97 -152 137 -30 18 -74 40 -98 47 -64 18 -70 24 -59 62 15 53 9 65 -9
18 -27 -70 -37 -60 -38 37 -1 118 -43 221 -124 305 -31 31 -62 57 -70 57 -10
0 -9 -5 4 -19 9 -10 18 -28 21 -40 5 -29 15 -42 25 -36 5 3 11 1 14 -4 12 -18
-20 -4 -67 30 -27 18 -72 46 -100 62 -56 29 -53 26 34 -46 19 -15 -2 -2 -46
28 -94 65 -91 63 -218 109 -53 20 -112 36 -130 35 -29 -1 -27 -2 18 -16z m-38
-39 c-3 -3 -12 -4 -19 -1 -8 3 -5 6 6 6 11 1 17 -2 13 -5z m343 -224 c0 -5 -2
-10 -4 -10 -3 0 -8 5 -11 10 -3 6 -1 10 4 10 6 0 11 -4 11 -10z m-1120 -35
c-14 -8 -29 -14 -35 -14 -5 0 1 6 15 14 14 8 30 14 35 14 6 0 -1 -6 -15 -14z
m700 -160 c28 -14 50 -28 50 -30 0 -5 -99 42 -109 51 -12 11 15 1 59 -21z
m-1023 -63 c-82 -72 -86 -75 -83 -58 2 18 37 58 44 51 3 -2 18 7 34 20 47 40
52 29 5 -13z m242 34 c-2 -2 -46 -27 -98 -56 -129 -72 -186 -132 -234 -245
-44 -103 -77 -156 -91 -148 -5 4 -6 -1 -2 -13 4 -10 4 -15 -1 -11 -10 10 -41
-89 -42 -133 -1 -27 -4 -31 -11 -20 -32 48 61 300 143 388 19 21 20 22 3 16
-15 -6 -17 -4 -11 7 26 43 51 69 66 69 9 0 28 10 43 21 49 38 268 155 235 125z
m699 -324 c-11 -14 -10 -15 7 -8 28 12 118 7 126 -6 9 -14 76 -5 122 17 20 9
40 14 46 11 5 -3 21 -2 35 4 22 8 26 7 26 -7 0 -13 3 -14 12 -5 19 19 40 15
33 -8 -5 -15 -2 -18 14 -15 12 2 21 0 21 -4 0 -4 28 -8 63 -8 67 0 107 -9 107
-24 0 -6 6 -7 13 -3 6 4 9 4 5 0 -3 -4 9 -28 28 -53 19 -24 34 -53 34 -63 0
-9 7 -23 15 -30 9 -7 14 -19 11 -27 -3 -7 -1 -13 4 -13 6 0 10 -10 10 -23 0
-12 6 -32 14 -43 23 -33 37 -102 46 -224 6 -80 17 -138 35 -190 14 -41 24 -82
23 -90 -1 -8 2 -22 7 -30 13 -20 14 -31 20 -135 3 -49 8 -108 11 -130 25 -185
25 -204 -7 -299 -33 -97 -97 -239 -111 -244 -4 -2 -8 -8 -8 -14 0 -6 -15 -31
-34 -57 -18 -25 -45 -67 -58 -92 -78 -140 -96 -184 -103 -244 -4 -33 -11 -64
-15 -70 -4 -5 -10 -27 -14 -47 -4 -20 -11 -38 -16 -40 -6 -2 -12 -27 -14 -56
-4 -45 -2 -51 10 -41 8 6 18 28 24 49 6 21 20 60 32 86 12 27 23 57 25 67 6
36 79 178 96 185 4 2 7 12 7 23 0 12 5 16 15 13 8 -4 15 -1 15 5 0 6 -5 11
-11 11 -5 0 -7 5 -3 12 6 9 9 9 12 0 2 -7 10 -12 17 -12 7 0 21 -17 31 -37 15
-31 19 -34 22 -18 2 10 -1 21 -7 23 -17 6 -13 49 5 56 9 4 17 5 18 4 1 -2 -2
-39 -5 -83 -3 -44 -7 -71 -8 -60 -2 16 -5 13 -12 -10 -5 -18 -5 -31 0 -33 5
-2 3 -15 -5 -30 -8 -15 -14 -33 -14 -40 0 -15 -29 -74 -40 -82 -4 -3 -14 -18
-23 -35 -9 -16 -35 -50 -57 -75 -23 -25 -55 -60 -72 -79 -22 -24 -33 -30 -38
-21 -6 9 -9 8 -11 -5 -4 -18 -5 -18 -21 -2 -16 16 -18 16 -28 -3 -8 -15 -8
-20 1 -20 6 0 0 -9 -15 -21 -14 -11 -26 -26 -26 -34 0 -31 -157 -191 -203
-207 -17 -7 -34 -10 -36 -9 -2 1 -7 -2 -11 -9 -9 -14 -206 -16 -223 -2 -7 5
-21 7 -32 4 -46 -11 -118 -2 -137 18 -10 11 -23 20 -28 20 -5 0 -25 15 -43 33
-19 17 -48 44 -64 58 -46 40 -50 73 -13 109 17 17 37 30 44 30 8 0 19 6 26 14
6 8 17 13 25 10 7 -3 16 -1 20 5 3 6 39 11 78 12 40 0 94 4 120 8 26 4 50 4
53 0 3 -5 10 -4 17 1 7 6 27 20 46 33 42 27 59 53 46 66 -6 6 -78 12 -161 14
-126 2 -154 6 -168 20 -10 9 -21 17 -26 17 -4 0 -11 8 -14 17 -11 29 22 44 99
44 93 1 254 0 335 -1 36 -1 76 -1 90 -1 14 1 34 0 45 -2 23 -2 32 27 15 49 -9
10 -31 13 -79 12 -56 -3 -75 2 -126 27 -55 27 -69 30 -160 30 -55 0 -106 4
-114 9 -21 13 -107 8 -159 -10 -67 -23 -98 -26 -112 -9 -8 9 -17 12 -24 7 -6
-5 -26 -12 -44 -15 -25 -5 -37 -2 -52 13 -11 11 -20 26 -21 33 -1 6 -2 26 -4
44 -1 17 -12 42 -24 55 -14 15 -20 30 -17 44 4 13 0 27 -9 34 -12 10 -13 16
-3 27 7 9 8 17 2 21 -11 8 -17 30 -16 55 0 9 -4 17 -10 17 -5 0 -7 7 -4 16 4
11 -1 18 -14 21 -11 3 -18 9 -15 13 3 5 0 12 -6 16 -8 4 -7 9 2 16 10 7 9 8
-5 4 -10 -4 -25 -1 -32 5 -12 10 -11 14 3 25 16 12 14 13 -17 8 -28 -5 -32 -3
-20 6 11 9 12 13 3 17 -7 2 -13 14 -13 26 0 16 -3 18 -9 8 -6 -9 -11 -10 -15
-2 -4 6 -5 15 -1 21 9 15 -37 61 -56 55 -20 -7 -32 18 -16 34 8 8 8 11 -2 11
-8 0 -25 12 -38 26 -15 17 -19 24 -9 21 11 -5 16 0 16 14 0 15 5 19 15 15 10
-3 15 1 15 12 0 15 2 15 10 2 6 -9 10 -10 10 -3 0 8 23 11 78 10 42 -1 95 2
117 6 22 4 56 10 75 14 41 8 36 6 75 22 54 21 110 53 128 73 9 11 17 15 17 9
0 -17 -41 -101 -50 -101 -4 0 -12 -17 -17 -39 -10 -36 -9 -38 10 -33 17 4 19
2 12 -14 -5 -10 -9 -75 -11 -144 -1 -69 -3 -125 -4 -125 -1 0 -4 -12 -6 -28
-2 -18 1 -25 8 -21 7 5 8 2 3 -6 -16 -26 -16 -82 0 -100 9 -10 15 -27 13 -37
-4 -26 38 -64 84 -74 39 -9 73 3 133 45 18 13 25 12 59 -5 22 -10 41 -19 42
-19 1 0 5 16 8 35 4 19 16 41 26 48 11 8 17 17 13 20 -3 4 6 7 20 7 16 0 26
-5 25 -12 -4 -20 50 -22 78 -3 14 9 32 32 40 50 16 40 18 58 3 33 -9 -16 -13
-17 -39 -3 -37 19 -83 19 -124 0 -29 -14 -36 -14 -62 0 -16 8 -35 15 -41 15
-7 0 -29 16 -49 35 -40 39 -41 56 -3 129 23 44 29 177 8 202 -8 10 -10 37 -6
87 4 39 7 118 9 175 l2 103 -38 35 c-20 19 -43 34 -50 34 -7 0 -19 11 -26 25
-7 14 -19 24 -26 23 -7 -2 -19 5 -26 15 -17 23 -62 32 -54 11 4 -12 -1 -10
-22 5 -23 16 -52 21 -150 27 -79 4 -119 10 -115 17 4 7 -1 8 -13 3 -10 -4 -15
-4 -11 0 4 4 -2 13 -13 21 -21 15 -20 16 22 64 10 10 15 19 11 19 -4 0 -2 5 4
11 8 8 17 8 32 -1 12 -6 32 -10 44 -8 19 3 17 7 -18 26 l-40 22 38 -6 c45 -8
50 8 7 26 -16 7 -27 16 -24 21 3 5 1 9 -5 9 -7 0 -6 10 1 30 5 17 7 37 4 46
-3 8 -2 13 2 10 4 -3 13 4 20 15 7 10 9 19 5 19 -11 0 -7 70 5 103 7 17 8 27
2 27 -6 0 -10 5 -10 10 0 6 7 10 15 10 18 0 20 40 3 40 -7 0 -5 5 5 11 10 6
17 22 17 40 0 18 4 28 10 24 6 -3 10 0 10 7 0 30 83 86 118 79 8 -1 24 5 38
13 14 10 59 19 115 23 74 5 103 12 145 35 30 15 60 28 69 28 8 0 15 5 15 11 0
15 32 39 43 32 4 -3 2 -12 -5 -21z m-1198 -48 c-10 -32 -28 -102 -39 -154 -17
-80 -19 -86 -14 -35 7 78 30 181 50 223 23 49 25 33 3 -34z m251 34 c-5 -13
-21 -49 -36 -81 -14 -32 -30 -77 -35 -100 l-9 -42 4 48 c4 43 66 197 79 197 3
0 2 -10 -3 -22z m-216 -25 c-4 -10 -16 -43 -26 -73 -10 -30 -18 -46 -18 -34
-1 33 29 124 40 124 7 0 8 -7 4 -17z m32 -235 c-3 -7 -5 -2 -5 12 0 14 2 19 5
13 2 -7 2 -19 0 -25z m589 -834 c-5 -13 -10 -14 -18 -6 -6 6 -8 18 -4 28 5 13
10 14 18 6 6 -6 8 -18 4 -28z m95 -34 c6 0 8 -4 4 -9 -3 -5 3 -11 12 -13 12
-3 -2 -14 -41 -32 -50 -25 -66 -28 -115 -23 -74 8 -141 40 -141 68 0 20 1 21
23 5 12 -9 33 -24 46 -33 24 -17 66 -20 125 -9 25 5 37 15 51 44 14 27 20 32
22 20 3 -10 9 -18 14 -18z m-811 -76 c-13 -70 -28 -122 -29 -101 -1 22 30 160
35 155 2 -2 -1 -26 -6 -54z m897 20 c-11 -11 -166 -62 -171 -56 -10 9 -7 24 3
18 5 -3 29 5 53 19 25 15 59 25 82 25 22 0 37 -3 33 -6z m1173 -614 c-24 -15
-37 -11 -16 5 11 8 22 12 25 9 3 -3 -1 -9 -9 -14z m-1545 -239 c-4 -13 1 -26
14 -38 16 -15 22 -36 25 -94 l5 -74 -19 55 c-10 30 -19 49 -19 43 -1 -7 -6
-13 -11 -13 -13 0 -9 52 5 62 6 5 5 8 -2 8 -13 0 -18 51 -6 63 11 12 15 8 8
-12z"/>
<path d="M2095 3268 c-49 -4 -98 -8 -107 -9 -10 0 -29 -14 -43 -30 l-25 -31 0
29 0 28 -19 -25 c-11 -13 -17 -28 -15 -32 3 -4 -7 -8 -21 -8 -22 0 -25 -3 -20
-21 4 -11 8 -59 9 -106 1 -71 4 -87 21 -99 11 -9 21 -10 25 -4 3 5 16 8 28 5
14 -2 33 6 52 21 34 29 39 21 10 -16 -11 -14 -20 -28 -20 -32 0 -5 30 -8 66
-8 57 0 65 2 54 15 -7 9 -9 26 -5 46 5 23 10 28 16 18 5 -8 9 -23 9 -35 0 -33
33 -55 94 -61 67 -7 86 6 112 73 l17 44 23 -32 c30 -40 30 -44 -2 -73 -28 -26
-18 -33 18 -14 29 16 43 -2 26 -32 -7 -13 -13 -25 -13 -25 0 -1 -11 -5 -25 -9
-23 -7 -23 -6 8 21 36 32 42 50 11 33 -12 -6 -32 -9 -45 -6 -13 2 -21 0 -18
-4 3 -5 15 -9 27 -9 20 -1 20 -2 -6 -16 -15 -8 -25 -19 -22 -24 4 -6 -4 -10
-17 -10 -16 0 -19 3 -10 9 11 7 10 10 -3 15 -9 3 -27 6 -39 6 -12 0 -27 5 -33
11 -6 6 -27 11 -47 12 -24 1 -32 4 -23 10 8 6 4 7 -11 4 -12 -3 -20 -2 -18 2
3 4 -23 8 -56 9 l-60 2 33 -31 c47 -44 111 -71 185 -77 102 -8 128 1 201 74
37 35 74 64 84 64 10 0 21 5 24 10 4 6 11 8 16 4 5 -3 8 0 7 8 -2 7 2 12 8 11
6 -1 16 14 23 33 12 33 11 36 -16 60 -15 13 -38 24 -51 24 -27 0 -67 34 -58
48 3 6 -2 12 -11 15 -10 2 -3 4 15 4 17 0 32 -4 32 -9 0 -4 -5 -8 -12 -8 -6 0
-8 -3 -5 -6 4 -4 12 -2 20 4 9 8 19 7 37 -3 14 -8 33 -17 42 -21 10 -4 14 -12
11 -22 -5 -13 -3 -14 7 -5 6 6 14 34 17 61 l5 50 -72 36 c-39 20 -68 31 -64
24 5 -8 0 -9 -17 -4 -13 4 -35 10 -49 13 -42 9 -220 10 -315 1z m284 -144 c9
-10 -53 6 -63 17 -6 5 4 5 24 -1 18 -5 35 -12 39 -16z m-79 12 c0 -2 -9 -6
-20 -9 -11 -3 -20 -1 -20 4 0 5 9 9 20 9 11 0 20 -2 20 -4z m175 -47 c26 -27
45 -53 42 -56 -10 -9 -66 37 -61 51 3 8 -7 18 -26 26 -37 15 -48 30 -22 30 10
0 40 -23 67 -51z m-131 -10 c30 -11 65 -29 78 -40 21 -18 19 -18 -22 2 -25 12
-70 30 -100 40 -30 9 -45 18 -33 18 12 1 47 -8 77 -20z m-85 -62 c-2 -2 -19
-7 -36 -10 -36 -7 -47 11 -13 20 11 3 20 10 20 16 0 6 8 4 17 -6 9 -9 15 -18
12 -20z m-28 -185 c-7 -2 -18 1 -23 6 -8 8 -4 9 13 5 13 -4 18 -8 10 -11z"/>
<path d="M1831 3134 c0 -11 3 -14 6 -6 3 7 2 16 -1 19 -3 4 -6 -2 -5 -13z"/>
<path d="M2280 2880 c0 -5 5 -10 10 -10 6 0 10 5 10 10 0 6 -4 10 -10 10 -5 0
-10 -4 -10 -10z"/>
<path d="M1385 2470 c-3 -5 -1 -10 4 -10 6 0 11 5 11 10 0 6 -2 10 -4 10 -3 0
-8 -4 -11 -10z"/>
<path d="M2320 4854 c36 -15 74 -34 84 -43 16 -13 18 -14 14 -1 -6 21 -75 57
-123 65 -35 5 -32 3 25 -21z"/>
<path d="M875 4590 c-3 -6 1 -7 9 -4 18 7 21 14 7 14 -6 0 -13 -4 -16 -10z"/>
<path d="M2503 1610 c0 -36 2 -50 4 -32 2 17 2 47 0 65 -2 17 -4 3 -4 -33z"/>
<path d="M2502 1500 c0 -14 2 -19 5 -12 2 6 2 18 0 25 -3 6 -5 1 -5 -13z"/>
<path d="M776 1347 c-61 -65 -100 -138 -135 -250 -11 -36 -27 -79 -35 -95 -8
-15 -17 -44 -21 -65 -4 -20 -11 -37 -15 -37 -5 0 -6 -8 -3 -19 3 -10 -2 -21
-10 -24 -12 -4 -13 1 -6 31 7 33 5 39 -24 65 -18 16 -33 23 -35 17 -4 -12 -51
-34 -67 -32 -6 1 -31 -30 -55 -69 -25 -38 -51 -78 -58 -87 -18 -24 45 104 75
151 32 51 22 60 -11 10 -14 -20 -26 -34 -26 -29 0 5 -6 4 -12 -2 -7 -5 -57
-32 -110 -60 -53 -27 -94 -53 -90 -57 4 -5 1 -5 -6 -1 -8 5 -21 1 -30 -7 -9
-9 -29 -18 -43 -22 -38 -9 -41 -41 -37 -431 l2 -334 493 0 c312 0 493 4 493
10 0 5 -20 69 -44 142 -68 205 -73 251 -15 136 69 -137 148 -238 185 -238 23
0 17 12 -42 80 -76 90 -157 220 -214 348 -50 109 -83 216 -55 179 8 -12 15
-14 20 -8 3 6 1 11 -5 11 -7 0 -9 16 -5 45 5 45 23 85 37 85 14 0 8 68 -7 83
-53 53 -89 170 -89 293 -1 66 3 86 18 103 16 17 50 130 42 138 -1 2 -29 -25
-60 -60z m-485 -610 c-10 -9 -11 -8 -5 6 3 10 9 15 12 12 3 -3 0 -11 -7 -18z"/>
<path d="M2610 1362 c0 -33 12 -84 32 -140 30 -84 31 -93 32 -252 1 -191 -7
-237 -70 -396 -24 -61 -44 -116 -44 -123 0 -6 -5 -11 -11 -11 -5 0 -7 -5 -4
-10 8 -13 -31 -134 -96 -298 -27 -67 -49 -125 -49 -127 0 -3 216 -5 480 -5
l480 0 0 413 0 412 -133 59 c-152 68 -161 74 -291 180 -65 53 -128 117 -190
195 -51 64 -103 125 -115 135 l-21 19 0 -51z"/>
</g>
</svg>
