<?xml version="1.0" standalone="no"?>
<!DOCTYPE svg PUBLIC "-//W3C//DTD SVG 20010904//EN"
 "http://www.w3.org/TR/2001/REC-SVG-20010904/DTD/svg10.dtd">
<svg version="1.0" xmlns="http://www.w3.org/2000/svg"
 width="331.000000pt" height="515.000000pt" viewBox="0 0 331.000000 515.000000"
 preserveAspectRatio="xMidYMid meet">

<g transform="translate(0.000000,515.000000) scale(0.100000,-0.100000)"
fill="#000000" stroke="none">
<path d="M1718 4945 c-21 -7 -36 -10 -34 -6 2 3 -66 5 -152 3 -112 -3 -180 -9
-236 -23 -77 -19 -217 -86 -282 -135 -17 -13 -36 -24 -42 -24 -5 0 -21 -9 -34
-20 -12 -11 -49 -37 -81 -56 -59 -37 -74 -57 -21 -29 16 8 34 15 39 14 6 0 -7
-9 -28 -20 -22 -11 -45 -18 -53 -15 -8 3 -14 1 -14 -5 0 -6 -5 -7 -12 -3 -7 4
-8 3 -4 -4 4 -7 0 -12 -10 -12 -22 0 -193 -86 -220 -111 -12 -11 -30 -37 -40
-59 -13 -25 -27 -40 -44 -44 -30 -6 -68 -64 -105 -161 -32 -82 -35 -99 -37
-180 -1 -37 5 -73 16 -95 9 -19 13 -26 10 -15 -21 68 -16 157 12 191 13 16 15
17 10 2 -3 -10 -1 -18 4 -18 6 0 10 5 10 10 0 6 7 10 15 10 8 0 14 3 14 8 -4
21 2 42 12 42 11 0 39 24 39 34 0 3 -7 3 -15 0 -11 -5 -13 -2 -9 11 4 10 14
15 26 12 13 -4 23 3 33 24 19 35 27 36 42 4 9 -21 9 -25 -5 -25 -10 0 -24 -5
-32 -10 -12 -8 -11 -13 8 -33 24 -26 28 -37 11 -37 -5 0 -7 5 -3 12 5 8 0 9
-17 5 -13 -4 -30 -7 -38 -7 -11 0 -10 -5 5 -19 10 -10 22 -17 26 -14 5 2 8 0
8 -6 0 -5 -6 -12 -12 -14 -10 -4 -10 -8 1 -15 10 -7 10 -14 2 -30 -11 -21 -3
-33 29 -45 9 -3 3 -6 -12 -6 -16 -1 -28 4 -28 9 0 6 -5 10 -10 10 -11 0 8 -40
25 -52 6 -4 0 -8 -11 -8 -12 0 -24 -7 -28 -15 -3 -8 -1 -15 4 -15 6 0 10 -7
10 -15 0 -8 -5 -15 -11 -15 -5 0 -7 5 -4 10 3 6 1 10 -4 10 -18 0 -13 -18 11
-40 12 -11 16 -20 10 -20 -16 0 -15 -30 1 -30 6 0 3 -8 -9 -18 -16 -13 -19
-23 -14 -42 6 -21 8 -23 15 -7 9 21 25 22 25 1 0 -8 -4 -13 -9 -10 -5 3 -12
-1 -15 -10 -10 -25 -7 -34 9 -28 8 4 15 1 15 -5 0 -6 -4 -11 -10 -11 -5 0 -10
-7 -10 -16 0 -8 4 -13 9 -10 13 8 21 -18 11 -34 -11 -19 0 -36 12 -19 6 9 7 3
4 -19 -4 -28 -2 -31 10 -21 13 10 14 8 10 -14 -2 -15 -8 -31 -11 -37 -4 -6 -1
-9 6 -8 15 3 18 -28 7 -54 -5 -9 -4 -19 2 -23 5 -3 6 -13 3 -23 -5 -14 -3 -15
8 -4 21 19 34 14 16 -6 -17 -19 -24 -47 -10 -39 5 3 9 -19 9 -49 1 -30 5 -58
9 -62 8 -9 36 28 30 39 -3 4 -1 10 5 14 12 8 13 -6 1 -37 -4 -13 -11 -42 -15
-65 -5 -35 -3 -43 9 -43 11 0 14 -6 9 -25 -3 -14 1 -37 10 -56 9 -18 16 -33
16 -34 0 -1 -18 6 -39 17 -48 24 -107 21 -103 -4 1 -9 -6 -19 -18 -23 -44 -14
-53 -46 -48 -178 7 -178 44 -310 108 -384 l28 -31 17 46 c23 61 39 78 31 32
-21 -113 -20 -125 11 -160 22 -25 39 -33 76 -37 37 -4 48 -2 53 10 6 17 -17
175 -42 287 -28 120 -36 216 -24 282 6 33 11 79 11 102 0 36 16 145 36 256 4
19 7 40 7 45 1 6 17 36 36 68 35 58 55 72 55 39 0 -23 14 -44 25 -37 15 9 63
-43 63 -69 0 -18 4 -23 16 -19 9 3 -3 -12 -26 -33 -50 -46 -66 -81 -68 -149
-1 -27 -9 -68 -19 -90 -18 -42 -21 -85 -14 -220 2 -44 1 -95 -3 -113 -4 -17
-3 -35 3 -38 5 -4 5 -10 -1 -17 -12 -15 -8 -78 12 -197 11 -63 14 -107 8 -132
-12 -53 -7 -377 7 -411 7 -16 33 -56 58 -89 l46 -59 4 -217 c3 -180 1 -214
-10 -200 -7 10 -18 56 -25 103 -10 62 -16 84 -24 76 -13 -13 -15 -137 -4 -199
5 -29 4 -41 -3 -37 -31 19 9 -90 77 -208 65 -114 221 -295 336 -389 l52 -42
-36 40 c-60 65 -64 112 -6 73 30 -21 29 -19 -9 22 -174 188 -254 280 -269 310
-15 30 -9 26 51 -32 95 -90 218 -180 238 -173 9 3 24 3 33 0 13 -5 14 -9 3
-19 -10 -9 -13 -9 -17 1 -3 6 -10 12 -16 12 -6 0 -4 -7 5 -17 13 -12 20 -14
31 -5 15 13 113 -33 211 -100 47 -32 71 -41 117 -45 61 -6 72 -15 42 -32 -16
-9 -16 -10 4 -11 18 0 69 -47 61 -56 -2 -1 -24 3 -50 8 -36 9 -54 8 -74 -1
-22 -10 -29 -9 -35 1 -7 10 -11 10 -21 0 -6 -6 -20 -12 -30 -12 -16 0 -16 4 7
41 35 54 26 73 -10 23 -42 -57 -44 -59 -39 -33 5 23 4 23 -11 -3 -8 -15 -44
-66 -80 -114 -36 -48 -65 -91 -65 -96 0 -4 -13 -28 -28 -53 l-28 -45 -32 44
c-17 24 -62 79 -99 123 -193 227 -317 406 -387 558 -14 32 -29 56 -31 53 -12
-12 27 -169 58 -228 50 -99 248 -375 343 -479 46 -52 87 -103 90 -116 4 -16
-9 -43 -51 -101 -31 -43 -63 -80 -70 -82 -7 -2 -17 10 -23 25 -5 15 -35 64
-66 108 -112 159 -133 191 -178 275 -45 83 -109 251 -122 320 -4 19 10 -5 32
-55 63 -150 135 -264 272 -434 41 -51 83 -103 92 -114 9 -12 20 -19 24 -15 4
4 2 13 -3 20 -6 7 -14 24 -18 38 l-8 25 27 -28 c27 -29 33 -51 16 -62 -6 -3
-10 -14 -10 -23 0 -13 6 -10 25 12 14 16 25 33 25 38 0 15 -151 183 -162 180
-5 -1 -7 2 -3 7 3 6 -14 36 -39 68 -67 88 -211 348 -243 438 -35 103 -37 209
-4 341 12 51 21 102 19 115 -4 22 -8 20 -59 -31 -37 -39 -68 -85 -101 -152
-27 -54 -48 -102 -48 -109 0 -6 -7 -8 -16 -5 -13 5 -15 2 -11 -14 3 -11 2 -18
-1 -16 -4 2 -19 -12 -34 -32 -103 -139 -129 -178 -134 -199 -4 -12 -11 -20
-16 -17 -6 4 -8 -2 -3 -15 4 -13 2 -21 -5 -21 -6 0 -8 -4 -5 -10 6 -9 -74
-184 -81 -178 -1 2 8 34 21 71 12 36 26 99 30 139 8 85 53 193 104 251 18 20
28 37 23 37 -6 0 -28 -21 -49 -46 -21 -26 -51 -61 -66 -78 -16 -17 -36 -43
-45 -58 -9 -16 -20 -28 -24 -28 -5 0 -13 -10 -18 -22 -9 -23 -9 -23 -9 3 -1
14 13 45 30 70 l31 44 -38 -41 c-22 -22 -56 -60 -77 -85 l-38 -44 35 51 c44
63 46 77 6 39 -16 -16 -30 -26 -30 -22 0 4 -18 -2 -40 -13 -23 -11 -46 -18
-52 -14 -6 4 -8 3 -4 -4 3 -6 -7 -19 -24 -28 -20 -13 -26 -20 -17 -26 9 -6 9
-8 0 -8 -10 0 -13 -86 -13 -395 l0 -395 445 0 c245 0 445 2 445 4 0 2 -9 23
-19 47 -11 24 -24 85 -31 134 -11 89 -11 331 1 317 29 -35 55 -170 65 -337 8
-151 8 -150 31 -153 23 -3 24 1 39 163 l6 70 19 -35 c25 -47 38 -95 40 -152 3
-45 5 -48 30 -48 22 0 28 6 33 32 6 31 32 68 47 68 4 0 10 -22 14 -50 6 -46 9
-50 35 -50 l28 0 3 114 c4 97 7 117 24 136 l20 22 12 -48 c6 -27 12 -86 12
-131 1 -86 7 -99 44 -89 20 5 22 10 19 72 -4 71 15 234 27 234 10 0 31 -119
40 -220 4 -44 10 -82 13 -86 6 -5 304 -9 419 -5 26 1 27 2 33 94 8 97 32 224
45 232 8 4 14 -46 27 -231 5 -72 10 -91 21 -90 22 3 33 27 33 69 0 48 19 127
31 127 5 0 11 -10 13 -23 5 -22 26 -161 26 -171 0 -3 11 -6 24 -6 17 0 27 9
36 30 7 17 18 30 25 30 8 0 20 3 28 6 10 4 16 -5 21 -30 4 -20 11 -36 16 -36
4 0 6 9 3 21 -3 11 0 31 7 45 10 18 11 27 3 35 -14 14 3 69 20 69 7 0 25 18
41 40 17 22 33 40 38 40 4 0 8 7 8 15 0 8 4 15 8 15 5 0 14 10 20 22 6 13 11
17 11 11 1 -7 6 -13 11 -13 6 0 10 18 10 41 0 32 6 45 26 62 14 11 35 41 46
66 15 35 21 42 28 31 8 -13 10 -12 10 2 0 23 31 88 42 88 23 0 -1 -220 -32
-290 -9 -22 -10 -21 -6 14 3 22 2 35 -3 30 -11 -11 -41 -148 -41 -184 0 -23
-20 -91 -45 -153 -7 -16 18 -17 429 -17 l436 0 0 115 0 115 -47 1 c-45 1 -46
1 -18 10 17 5 38 6 48 3 16 -5 17 14 17 303 l0 308 -87 35 c-57 23 -106 51
-142 82 -31 27 -62 46 -69 43 -7 -3 -10 -1 -7 4 3 6 -34 38 -82 72 -94 67
-117 88 -234 225 -66 77 -116 124 -132 124 -11 0 15 -136 37 -190 39 -97 52
-260 31 -392 -19 -124 -48 -211 -83 -258 -15 -19 -47 -67 -72 -107 -54 -87
-198 -290 -210 -298 -5 -3 -16 -28 -25 -55 -19 -58 -38 -64 -63 -19 -9 17 -35
54 -56 82 -40 51 -71 130 -61 156 5 12 3 12 -11 1 -17 -15 -20 -13 -51 44 -14
27 -14 32 1 57 16 27 16 28 -4 26 -11 -1 -20 -7 -20 -14 0 -7 -3 -13 -7 -13
-12 0 -83 120 -82 138 0 11 2 13 6 4 4 -9 15 -5 41 15 81 61 203 209 141 170
-10 -6 -16 -13 -14 -15 2 -3 -17 -21 -43 -40 -26 -20 -50 -40 -54 -46 -3 -5
-14 -11 -22 -12 -16 -2 -55 -42 -56 -56 0 -16 -26 -7 -49 17 l-23 25 28 41
c25 37 130 137 254 242 38 32 40 35 14 23 -17 -8 -36 -22 -43 -30 -7 -9 -17
-13 -22 -10 -5 3 -9 2 -8 -3 4 -20 -2 -27 -12 -13 -8 11 -10 12 -7 1 2 -8 -28
-43 -66 -78 -39 -35 -94 -86 -123 -113 -52 -50 -61 -51 -76 -7 -10 27 44 72
99 81 18 3 94 58 94 67 0 12 -51 -12 -75 -35 -29 -27 -85 -49 -124 -48 -40 2
-42 3 -45 36 -2 15 -11 35 -21 46 -10 11 -13 20 -7 20 6 0 14 9 17 20 4 11 15
20 26 20 11 0 17 4 14 10 -3 5 2 10 13 10 15 0 19 6 17 25 -2 14 2 25 8 26 7
0 -1 5 -16 11 -17 6 -26 15 -23 23 2 7 -10 21 -30 31 -51 28 -48 69 9 120 65
58 96 79 180 119 43 20 77 40 77 45 0 6 6 10 13 10 8 0 45 31 83 70 38 38 75
70 81 70 7 0 12 4 10 9 -3 10 70 81 84 81 6 0 8 4 5 9 -3 4 43 54 103 109
l109 102 1 -92 c1 -50 4 -94 6 -97 3 -2 5 44 5 103 l0 108 40 56 c57 79 80
160 94 337 l12 150 38 -3 c43 -4 92 13 100 33 4 10 -1 10 -22 -1 -34 -18 -73
-18 -97 -1 -16 12 -16 18 -7 47 7 18 12 45 12 60 0 25 30 159 52 228 l10 34
20 -22 c11 -12 26 -19 34 -16 29 11 13 -34 -31 -88 -55 -69 -63 -110 -9 -54
19 21 45 38 57 38 62 1 126 128 93 187 -13 25 -66 70 -94 80 -19 7 -16 13 33
68 30 33 56 57 58 55 4 -5 16 -52 42 -167 13 -57 15 -80 6 -104 -6 -18 -9 -34
-7 -37 3 -2 12 20 21 50 12 42 14 78 9 178 -3 69 -8 128 -11 133 -11 19 -52 4
-88 -33 -21 -22 -36 -40 -31 -40 4 0 -9 -20 -28 -44 -20 -23 -36 -52 -36 -62
0 -10 -4 -25 -9 -33 -9 -14 -6 88 5 156 5 33 55 86 94 98 12 4 19 9 17 12 -3
2 -19 -3 -37 -12 -39 -20 -46 -15 -27 22 9 16 22 76 31 133 30 202 66 340 88
340 5 0 7 9 3 19 -3 11 -1 22 5 26 5 3 10 26 10 51 0 46 7 53 29 32 12 -11 13
-9 6 7 -16 44 -16 54 5 100 12 26 21 54 21 63 -3 137 -10 174 -44 230 -59 97
-113 210 -89 189 11 -10 26 -32 32 -48 7 -16 15 -27 18 -25 2 3 -7 25 -22 50
-30 51 -120 128 -193 165 -26 14 -55 30 -63 37 -8 7 -26 14 -38 16 -18 2 -33
20 -57 67 -57 109 -130 169 -254 212 -42 14 -109 47 -150 74 -90 58 -132 72
-253 81 -51 3 -95 8 -98 9 -3 2 -22 -3 -42 -10z m-240 -225 c-84 -22 -145 -34
-137 -26 9 10 152 45 179 45 14 -1 -5 -9 -42 -19z m-178 -30 c-8 -5 -33 -12
-55 -15 -83 -14 -232 -77 -327 -139 -15 -10 -31 -15 -36 -12 -6 3 -16 -1 -23
-10 -7 -8 -26 -22 -43 -30 -29 -14 -29 -14 -11 1 11 9 34 27 50 41 17 13 32
24 35 24 3 -1 41 20 85 45 89 51 229 96 325 103 13 2 13 1 0 -8z m-472 -93
c-72 -58 -100 -77 -115 -77 -20 0 -15 18 7 25 11 4 17 11 14 17 -4 7 -2 8 4 4
12 -7 52 13 52 27 0 4 -5 5 -12 1 -7 -4 -8 -3 -4 5 4 6 11 9 15 7 4 -3 20 4
37 15 54 35 55 19 2 -24z m76 -112 c-4 -8 -11 -15 -16 -15 -6 0 -5 6 2 15 7 8
14 15 16 15 2 0 1 -7 -2 -15z m-320 -11 c9 -22 8 -26 -6 -22 -13 5 -20 38 -8
38 4 0 11 -7 14 -16z m140 4 c21 17 21 17 2 -5 -11 -13 -23 -23 -27 -23 -5 0
-13 10 -20 23 -11 21 -11 21 7 5 17 -17 19 -17 38 0z m156 -26 c0 -5 -12 -19
-26 -33 -14 -13 -33 -37 -41 -52 -8 -16 -17 -27 -19 -24 -3 3 -15 -5 -28 -17
-25 -24 -92 -77 -112 -89 -9 -5 -14 -3 -14 8 0 8 5 15 11 15 6 0 9 7 6 14 -4
9 -1 13 6 11 7 -3 55 36 107 85 91 86 110 100 110 82z m-262 -102 c0 -8 -6 1
-13 20 -7 19 -13 42 -13 50 0 8 6 -1 13 -20 7 -19 13 -42 13 -50z m22 70 c0
-5 -4 -10 -10 -10 -5 0 -10 5 -10 10 0 6 5 10 10 10 6 0 10 -4 10 -10z m20
-24 c0 -2 -8 -10 -17 -17 -16 -13 -17 -12 -4 4 13 16 21 21 21 13z m-117 -101
l6 -30 -14 30 c-16 34 -21 72 -6 45 5 -8 11 -28 14 -45z m-73 -5 c0 -5 -4 -10
-10 -10 -5 0 -10 5 -10 10 0 6 5 10 10 10 6 0 10 -4 10 -10z m70 -70 c0 -5 -2
-10 -4 -10 -3 0 -8 5 -11 10 -3 6 -1 10 4 10 6 0 11 -4 11 -10z m45 -1 c11
-17 -1 -21 -15 -4 -8 9 -8 15 -2 15 6 0 14 -5 17 -11z m-200 -49 c3 -5 1 -10
-4 -10 -6 0 -11 5 -11 10 0 6 2 10 4 10 3 0 8 -4 11 -10z m1435 -18 c0 -8 7
-11 18 -8 10 4 36 0 58 -7 23 -9 47 -11 59 -6 30 12 38 10 32 -5 -5 -11 0 -13
25 -5 36 10 128 -10 189 -42 81 -41 176 -228 204 -401 4 -27 10 -36 20 -31 9
3 15 -1 15 -11 0 -9 -5 -16 -12 -16 -6 0 -4 -7 5 -18 10 -10 17 -22 17 -25 0
-14 35 -47 50 -48 10 0 11 -2 3 -6 -7 -2 -13 -17 -13 -32 0 -15 -5 -32 -11
-38 -8 -8 -7 -17 3 -32 18 -30 24 -27 48 22 18 37 19 30 2 -13 -5 -13 -4 -13
13 0 17 14 18 13 12 -4 -10 -26 2 -64 14 -45 6 9 9 0 9 -28 0 -24 5 -43 10
-43 6 0 10 -17 10 -38 0 -21 5 -43 11 -49 6 -6 17 -56 24 -110 8 -54 18 -131
24 -171 11 -74 2 -181 -18 -220 -5 -9 -17 -44 -27 -77 -9 -33 -34 -89 -56
-124 -21 -34 -38 -70 -38 -80 -1 -9 -19 -29 -40 -46 -21 -16 -39 -38 -40 -47
0 -10 -4 -18 -10 -18 -5 0 -16 -17 -26 -37 -9 -21 -25 -54 -35 -74 -10 -20
-19 -43 -19 -52 0 -8 -11 -40 -25 -70 -13 -31 -26 -72 -28 -91 -2 -20 -9 -41
-14 -48 -6 -8 -7 -22 -2 -33 4 -11 8 -29 8 -40 -1 -11 -3 -14 -6 -7 -12 30
-32 -3 -39 -68 -18 -157 -8 -135 -113 -241 -60 -60 -115 -105 -146 -120 -46
-23 -58 -24 -143 -18 -61 4 -97 10 -102 19 -7 11 -14 11 -38 1 -23 -10 -35
-10 -51 -1 -12 6 -31 8 -41 5 -12 -4 -20 -2 -20 5 0 6 -5 8 -10 5 -6 -3 -10
-1 -10 4 0 6 -10 11 -23 11 -12 0 -28 9 -35 20 -7 11 -19 20 -26 20 -8 0 -17
9 -21 19 -3 10 -14 21 -25 24 -27 7 -45 80 -29 118 6 16 17 30 23 30 37 4 99
20 111 29 6 4 60 10 120 13 134 7 144 9 164 33 9 11 31 30 50 44 29 20 32 25
16 30 -10 3 -44 3 -77 -2 -34 -4 -77 -4 -102 2 -23 5 -68 9 -100 9 -39 -1 -63
4 -75 15 -10 9 -20 13 -24 10 -12 -12 -19 46 -7 61 15 19 202 23 460 12 98 -5
120 -1 120 18 0 24 -37 37 -85 29 -33 -4 -55 -2 -80 11 -20 9 -46 15 -58 14
-26 -2 -74 8 -99 22 -10 5 -45 9 -77 9 -34 0 -63 5 -67 11 -10 16 -134 5 -178
-16 -30 -14 -40 -15 -71 -4 -27 10 -40 11 -54 2 -27 -17 -101 3 -101 28 0 10
-5 21 -11 25 -6 3 -9 15 -6 25 3 12 -2 23 -14 29 -10 6 -19 20 -19 30 0 12 -7
20 -17 20 -16 1 -17 2 -2 13 13 10 14 16 5 32 -6 11 -15 23 -21 27 -6 5 -5 8
3 8 21 0 13 30 -10 40 -20 7 -20 9 -4 9 16 1 14 5 -12 31 -39 37 -69 93 -53
98 6 2 11 8 11 13 0 6 -7 6 -19 0 -22 -12 -32 -5 -24 17 5 11 3 13 -7 7 -10
-6 -12 -4 -7 8 4 10 0 20 -11 26 -16 10 -16 10 1 11 9 0 17 5 17 10 0 6 -7 10
-16 10 -20 0 -42 22 -36 38 2 7 -5 12 -17 12 -12 0 -21 5 -21 10 0 6 -11 22
-25 36 -26 26 -28 63 -7 116 11 28 32 46 32 28 0 -6 10 -8 23 -5 12 3 33 2 45
-2 30 -11 195 2 271 21 33 8 79 27 102 41 22 15 43 24 46 22 6 -7 -23 -61 -41
-76 -18 -15 -22 -51 -5 -51 7 0 9 -27 5 -87 -4 -49 -8 -135 -9 -193 -2 -58 -8
-113 -13 -123 -6 -10 -8 -32 -5 -50 l5 -32 7 30 c6 29 7 29 8 -8 1 -30 6 -40
21 -44 11 -3 20 -11 20 -19 0 -13 58 -34 96 -34 11 0 41 14 67 31 50 33 71 31
101 -13 l16 -22 0 28 c0 39 46 116 69 116 10 0 21 -9 24 -20 8 -33 60 -27 91
11 24 28 36 67 18 55 -5 -3 -28 2 -51 10 -42 14 -87 14 -111 -1 -6 -4 -17 -2
-23 4 -7 5 -30 11 -51 13 -27 1 -47 12 -72 36 -42 40 -40 61 7 127 26 36 29
48 25 91 -2 27 -9 62 -16 78 -6 18 -10 77 -8 145 3 139 0 186 -15 226 -15 44
-28 59 -38 44 -4 -8 -14 2 -27 27 -20 36 -86 114 -99 114 -3 0 -2 -12 2 -27 6
-27 6 -27 -9 -8 -8 11 -18 17 -22 13 -4 -4 -14 -2 -22 5 -13 10 -14 9 -7 -3 7
-13 6 -13 -7 -2 -18 15 -52 22 -118 27 -69 5 -104 13 -108 24 -5 14 -42 14
-42 1 0 -5 -8 -10 -17 -10 -17 1 -17 1 0 14 21 17 22 26 1 26 -14 0 -14 3 -4
15 7 8 19 15 26 15 8 0 14 5 14 10 0 6 -4 10 -10 10 -16 0 -12 14 15 42 14 15
24 31 23 35 -4 15 34 63 51 64 10 0 11 2 4 6 -7 2 -13 11 -13 18 0 16 38 27
43 11 7 -18 19 0 21 31 2 33 25 79 26 51 0 -9 18 -36 41 -60 l41 -43 -17 35
c-19 39 -16 36 40 -34 36 -46 116 -106 139 -106 6 0 -3 9 -21 20 -45 27 -104
89 -132 140 -13 24 -19 40 -12 36 7 -5 11 0 11 13 0 37 18 31 54 -19 44 -62
88 -111 93 -106 2 2 -18 33 -45 68 -78 104 -94 145 -93 239 2 115 14 127 34
32 9 -43 33 -111 52 -152 40 -83 46 -110 9 -38 -32 62 -39 60 -11 -4 12 -28
25 -50 29 -48 5 2 23 -18 42 -46 18 -27 43 -59 55 -69 11 -11 21 -24 21 -30
-1 -6 -21 12 -45 39 -36 40 -42 44 -30 20 8 -17 27 -42 42 -57 43 -40 162
-108 207 -118 48 -11 61 -5 20 10 -111 40 -202 141 -265 293 -34 82 -69 206
-68 239 0 13 2 19 4 13 2 -5 15 -49 30 -97 14 -48 31 -91 37 -94 6 -4 9 -3 6
2 -12 20 -57 182 -62 225 -4 25 -2 56 3 70 5 13 10 17 11 9 0 -10 3 -11 8 -3
4 6 39 18 77 26 39 8 86 22 106 31 20 8 39 12 43 9 3 -4 6 2 6 12 0 13 3 15
13 7 10 -8 17 -7 28 6 18 21 59 24 59 4z m690 -32 c0 -5 -2 -10 -4 -10 -3 0
-8 5 -11 10 -3 6 -1 10 4 10 6 0 11 -4 11 -10z m436 -75 c9 -40 -4 -27 -16 15
-6 20 -6 30 -1 24 5 -5 13 -22 17 -39z m-456 -481 c0 -3 -7 -1 -15 6 -8 7 -15
17 -15 22 0 5 7 3 15 -6 8 -8 15 -18 15 -22z m-1916 -205 c-1 -28 -5 -53 -7
-55 -6 -6 -7 69 -1 89 9 30 12 19 8 -34z m644 -322 c2 -10 -3 -17 -12 -17 -9
0 -16 2 -16 4 0 2 -3 12 -6 21 -5 13 -2 16 12 13 10 -2 20 -11 22 -21z m96
-16 c16 -17 16 -18 -8 -14 -16 3 -23 10 -19 19 7 18 7 18 27 -5z m-150 -81
c52 0 84 13 105 43 11 15 15 16 22 6 7 -12 9 -12 9 0 0 11 3 11 15 1 8 -7 15
-9 16 -4 0 5 4 0 8 -11 7 -17 1 -23 -48 -42 -71 -28 -131 -29 -182 -3 -59 31
-80 51 -68 67 9 10 18 5 44 -22 28 -30 39 -35 79 -35z m286 -3 c0 -5 -4 -5
-10 -2 -5 3 -20 -1 -33 -10 -13 -8 -33 -13 -43 -9 -16 5 -16 4 -4 -5 16 -12
10 -14 -32 -11 -16 1 -28 -3 -28 -8 0 -5 -11 -14 -25 -20 -21 -10 -27 -9 -32
3 -7 19 -10 17 56 43 29 12 69 22 87 22 28 0 34 4 34 22 0 21 0 21 15 2 8 -10
15 -23 15 -27z m-782 -256 c17 -56 15 -70 -8 -41 -20 25 -28 80 -12 80 5 0 14
-17 20 -39z m1839 -331 c-5 -45 -4 -50 13 -50 11 0 20 -4 20 -10 0 -5 7 -10
15 -10 14 0 18 -14 17 -70 -1 -44 -21 -143 -32 -154 -5 -5 -10 -18 -10 -29 0
-11 -4 -15 -12 -11 -7 5 -9 2 -5 -8 3 -9 -3 -25 -14 -37 -11 -12 -17 -21 -13
-21 3 0 -11 -19 -32 -42 -21 -24 -42 -42 -46 -40 -5 1 -7 -1 -6 -5 2 -5 -12
-27 -31 -50 -28 -35 -38 -41 -58 -37 -18 5 -22 3 -17 -10 4 -11 1 -16 -10 -16
-19 0 -20 18 -5 57 40 102 57 156 52 169 -3 8 0 21 7 29 7 9 14 23 15 33 3 31
93 224 108 230 4 2 7 14 7 27 0 13 5 27 10 30 6 3 10 19 10 34 0 26 7 41 18
41 3 0 2 -22 -1 -50z m75 -10 c-14 -41 -18 -46 -26 -30 -5 10 -5 27 -1 37 5
10 7 22 6 26 -1 5 3 6 9 2 5 -3 10 -1 10 4 0 6 4 11 9 11 5 0 2 -22 -7 -50z
m-1567 -182 c25 -58 45 -125 38 -132 -3 -3 -1 -12 6 -20 6 -8 11 -18 10 -22
-3 -12 10 -78 28 -142 8 -30 13 -62 10 -73 -3 -10 -2 -19 3 -19 4 0 10 -16 12
-35 5 -43 -19 -57 -28 -17 -4 15 -13 36 -19 47 -7 11 -29 88 -50 170 -20 83
-39 157 -42 165 -7 18 -9 24 -18 75 -8 38 -7 39 10 25 17 -14 18 -13 12 3 -13
36 10 15 28 -25z m285 -212 c0 -3 -4 -8 -10 -11 -5 -3 -10 -1 -10 4 0 6 5 11
10 11 6 0 10 -2 10 -4z m-25 -26 c3 -5 2 -10 -4 -10 -5 0 -13 5 -16 10 -3 6
-2 10 4 10 5 0 13 -4 16 -10z m980 -210 c3 -5 1 -10 -4 -10 -6 0 -11 5 -11 10
0 6 2 10 4 10 3 0 8 -4 11 -10z m-1084 -127 c13 -16 12 -17 -3 -4 -10 7 -18
15 -18 17 0 8 8 3 21 -13z m1543 -339 c3 -8 2 -12 -4 -9 -6 3 -10 10 -10 16 0
14 7 11 14 -7z m326 -254 c0 -5 -2 -10 -4 -10 -3 0 -8 5 -11 10 -3 6 -1 10 4
10 6 0 11 -4 11 -10z m-1639 -96 c21 -22 21 -24 4 -18 -20 8 -35 23 -35 37 0
12 5 9 31 -19z m-1261 -39 c-15 -18 -98 -60 -105 -53 -3 2 15 15 40 27 24 12
47 26 50 32 4 5 11 9 17 9 7 0 6 -5 -2 -15z m77 -17 c-3 -8 -6 -5 -6 6 -1 11
2 17 5 13 3 -3 4 -12 1 -19z m-35 -20 c-7 -7 -12 -8 -12 -2 0 14 12 26 19 19
2 -3 -1 -11 -7 -17z m2963 -4 c-10 -8 -20 -12 -23 -10 -7 8 23 34 32 28 5 -3
1 -11 -9 -18z m-1225 -179 c-30 -32 -38 -25 -9 9 12 14 25 24 27 21 3 -3 -5
-16 -18 -30z m-1143 -137 c-3 -79 -17 -61 -17 20 1 46 4 62 10 51 5 -8 8 -41
7 -71z m358 1 c-4 -5 -1 -9 5 -9 6 0 8 -5 5 -11 -9 -13 -15 -7 -20 20 -2 12 0
19 6 16 5 -4 7 -11 4 -16z m676 -16 c13 -16 12 -17 -3 -4 -17 13 -22 21 -14
21 2 0 10 -8 17 -17z m-606 -63 c3 -5 1 -10 -4 -10 -6 0 -11 5 -11 10 0 6 2
10 4 10 3 0 8 -4 11 -10z m524 3 c14 11 14 10 2 -6 -9 -12 -17 -14 -26 -7 -6
5 -16 6 -20 2 -5 -4 -5 -1 0 6 5 10 10 11 18 3 7 -7 15 -7 26 2z m28 -28 c0
-8 -4 -12 -9 -9 -5 3 -6 10 -3 15 9 13 12 11 12 -6z m-678 -13 c7 -14 6 -19
-3 -19 -6 0 -13 9 -13 19 -1 10 0 18 2 18 2 0 9 -8 14 -18z m636 -22 c-3 -5
-1 -10 4 -10 6 0 11 5 11 10 0 7 5 6 13 -2 10 -9 11 -15 3 -24 -7 -8 -13 -8
-17 -2 -4 6 -11 3 -18 -8 -6 -11 -11 -14 -11 -9 0 6 -4 5 -8 -2 -6 -9 -11 -7
-19 7 -11 17 -10 18 12 14 14 -2 25 0 25 6 0 5 -6 10 -12 10 -9 0 -8 4 2 10
19 12 23 12 15 0z m50 -61 c11 -17 -6 -31 -21 -18 -8 6 -14 8 -14 5 0 -4 -5
-4 -10 -1 -6 4 -8 10 -6 14 7 10 45 11 51 0z m-34 -52 c-10 -9 -11 -8 -5 6 3
10 9 15 12 12 3 -3 0 -11 -7 -18z m1426 -3 c-3 -3 -12 -4 -19 -1 -8 3 -5 6 6
6 11 1 17 -2 13 -5z m-1447 -29 c0 -8 -5 -17 -11 -21 -8 -4 -9 1 -4 16 5 17 4
21 -5 15 -9 -5 -11 -4 -6 4 9 14 26 5 26 -14z m53 0 c-3 -9 -8 -14 -10 -11 -3
3 -2 9 2 15 9 16 15 13 8 -4z m-83 -9 c0 -3 -4 -8 -10 -11 -5 -3 -10 -1 -10 4
0 6 5 11 10 11 6 0 10 -2 10 -4z m857 -88 c-3 -8 -6 -5 -6 6 -1 11 2 17 5 13
3 -3 4 -12 1 -19z m-812 -50 c5 4 5 1 1 -6 -6 -10 -11 -10 -22 -1 -8 6 -14 14
-14 16 0 3 6 0 13 -6 8 -6 18 -7 22 -3z m1570 -16 c-3 -3 -11 0 -18 7 -9 10
-8 11 6 5 10 -3 15 -9 12 -12z"/>
<path d="M1240 3651 c0 -6 5 -13 10 -16 6 -3 10 1 10 9 0 9 -4 16 -10 16 -5 0
-10 -4 -10 -9z"/>
<path d="M2029 3302 c10 -7 3 -11 -25 -15 -22 -3 -51 -7 -66 -10 -16 -2 -28 0
-28 5 0 5 -7 2 -16 -7 -9 -9 -23 -14 -31 -10 -37 14 -75 -100 -57 -171 4 -16
8 -42 8 -59 1 -25 6 -30 36 -36 19 -4 42 -3 52 2 30 16 41 11 36 -21 -4 -25
-1 -30 15 -30 11 0 29 8 40 18 19 16 20 16 14 0 -5 -13 -1 -18 13 -18 22 0 27
16 8 22 -9 3 -8 13 4 37 l15 33 12 -33 c20 -56 38 -69 101 -69 66 0 83 11 100
63 6 20 15 37 20 37 11 0 27 -22 39 -52 10 -26 8 -28 -46 -53 -31 -14 -53 -28
-50 -31 3 -3 27 4 52 15 26 12 53 21 61 21 24 0 26 -21 3 -46 -12 -13 -18 -24
-13 -24 4 0 24 18 44 39 19 22 50 50 69 63 33 22 52 60 28 55 -7 -1 -12 8 -11
20 0 12 -2 20 -6 18 -15 -9 -51 27 -45 45 8 26 -15 37 -32 15 -12 -18 -13 -18
-13 -1 0 12 -5 16 -15 12 -8 -3 -15 -1 -15 5 0 6 -7 8 -16 5 -8 -3 -12 -2 -9
4 3 6 -2 10 -13 10 -10 0 -19 6 -19 14 0 36 157 24 235 -19 l27 -14 -25 -1
c-25 -1 -25 -1 -3 -12 29 -14 57 -3 49 19 -4 9 -2 19 4 23 7 5 2 18 -14 38
-29 34 -93 75 -98 62 -2 -4 -37 -1 -78 7 -41 9 -129 17 -195 18 -66 1 -129 5
-140 9 -14 6 -16 5 -6 -2z m303 -208 c46 -23 82 -56 42 -39 -10 4 -59 23 -109
41 l-90 33 55 -6 c30 -3 76 -16 102 -29z m-119 -49 c1 -5 -15 -11 -35 -13 -36
-3 -52 10 -25 22 19 8 57 2 60 -9z"/>
<path d="M2448 3113 c7 -3 16 -2 19 1 4 3 -2 6 -13 5 -11 0 -14 -3 -6 -6z"/>
<path d="M2485 3100 c-3 -5 -2 -10 4 -10 5 0 13 5 16 10 3 6 2 10 -4 10 -5 0
-13 -4 -16 -10z"/>
<path d="M2057 2934 c5 -13 3 -16 -10 -11 -9 3 -17 2 -17 -3 0 -6 -13 -10 -29
-10 -70 0 -34 -36 64 -65 112 -32 235 -17 243 30 2 14 1 16 -6 7 -5 -7 -13
-12 -18 -11 -5 1 -13 0 -19 -1 -30 -8 -61 -3 -72 11 -7 9 -29 20 -50 24 -20 4
-50 16 -65 26 -25 18 -27 18 -21 3z"/>
<path d="M1077 2474 c-3 -4 -1 -16 5 -28 6 -11 11 -22 10 -23 -1 -2 1 -3 6 -2
4 1 5 6 3 13 -2 6 -4 16 -5 23 -3 17 -11 24 -19 17z"/>
<path d="M2227 1803 c-4 -3 -7 -11 -7 -17 0 -6 5 -5 12 2 6 6 9 14 7 17 -3 3
-9 2 -12 -2z"/>
<path d="M345 4100 c3 -5 8 -10 11 -10 2 0 4 5 4 10 0 6 -5 10 -11 10 -5 0 -7
-4 -4 -10z"/>
<path d="M440 4100 c0 -6 7 -10 15 -10 8 0 15 2 15 4 0 2 -7 6 -15 10 -8 3
-15 1 -15 -4z"/>
<path d="M359 3900 c13 -11 27 -20 32 -20 18 0 8 10 -23 25 l-33 16 24 -21z"/>
<path d="M2808 2584 c-16 -8 -28 -19 -28 -24 0 -17 16 -11 40 15 27 29 25 30
-12 9z"/>
<path d="M2830 2530 c-6 -11 -8 -20 -6 -20 3 0 10 9 16 20 6 11 8 20 6 20 -3
0 -10 -9 -16 -20z"/>
<path d="M2450 1509 c0 -134 -42 -252 -122 -345 -23 -27 -31 -40 -18 -29 45
36 80 79 108 135 16 30 34 64 40 75 14 27 32 107 31 142 0 25 -1 26 -9 8 -7
-16 -9 -14 -9 15 -1 19 -6 42 -11 50 -7 11 -10 -5 -10 -51z"/>
<path d="M2495 1191 c-3 -17 -15 -49 -26 -72 -11 -22 -18 -43 -15 -46 8 -8
-30 -77 -62 -115 -15 -18 -34 -46 -42 -63 -8 -16 -17 -32 -20 -35 -9 -9 -30
-50 -26 -50 11 0 130 167 151 212 25 54 60 187 51 195 -2 2 -7 -9 -11 -26z"/>
<path d="M2560 1186 c0 -13 -8 -51 -19 -85 -10 -33 -17 -62 -14 -65 2 -2 -14
-36 -36 -76 -23 -39 -41 -76 -41 -80 0 -5 -4 -10 -8 -12 -4 -1 -18 -19 -31
-38 l-23 -35 31 33 c17 18 31 30 31 28 0 -8 -49 -98 -61 -113 -7 -7 -9 -16 -6
-19 7 -8 62 68 93 128 45 88 82 206 89 282 4 42 5 76 1 76 -3 0 -6 -11 -6 -24z"/>
<path d="M810 1185 c0 -59 53 -188 117 -281 45 -67 205 -234 217 -227 6 3 8 3
4 -2 -9 -10 24 -58 96 -136 56 -60 48 -39 -9 26 -36 40 -58 84 -51 101 8 20
32 -2 107 -95 43 -52 58 -78 54 -92 -8 -25 1 -24 15 2 13 23 10 27 -234 294
-76 83 -144 164 -153 180 -8 17 -42 67 -74 112 -33 45 -59 85 -59 90 0 5 -7
18 -15 29 -14 19 -14 19 -15 -1z"/>
<path d="M2230 1062 c-32 -32 -37 -39 -15 -24 33 22 71 60 64 65 -2 2 -24 -17
-49 -41z"/>
<path d="M2330 1055 c-29 -30 -56 -53 -58 -50 -7 7 -42 -15 -42 -26 0 -6 5 -7
12 -3 7 4 8 3 4 -5 -4 -6 -12 -9 -17 -6 -11 7 -99 -75 -99 -93 0 -7 -10 -17
-22 -22 -23 -9 -23 -9 -1 -9 20 -1 53 30 79 75 11 18 11 18 10 -1 -1 -11 -6
-27 -11 -35 -8 -13 -6 -13 8 -2 9 8 15 19 14 25 -1 7 3 11 10 10 7 -2 10 6 8
17 -2 12 1 17 9 14 11 -4 54 40 144 149 30 35 5 15 -48 -38z"/>
<path d="M2606 1048 c-3 -16 -9 -40 -12 -55 -6 -31 -9 -37 -83 -197 -47 -100
-49 -110 -36 -129 8 -12 16 -18 16 -14 3 15 7 24 37 91 34 72 97 298 89 319
-3 7 -7 0 -11 -15z"/>
<path d="M2159 1003 c-13 -16 -12 -17 4 -4 16 13 21 21 13 21 -2 0 -10 -8 -17
-17z"/>
<path d="M2245 828 c-80 -92 -91 -108 -75 -108 18 0 97 87 125 137 14 25 24
47 23 49 -2 1 -34 -34 -73 -78z"/>
<path d="M0 829 c0 -5 5 -7 10 -4 5 3 10 8 10 11 0 2 -4 4 -10 4 -5 0 -10 -5
-10 -11z"/>
<path d="M2059 813 c-13 -15 -12 -15 9 -4 23 12 28 21 13 21 -5 0 -15 -7 -22
-17z"/>
<path d="M1364 700 c27 -30 53 -67 58 -82 11 -30 23 -36 31 -15 6 16 -44 78
-96 119 l-42 33 49 -55z"/>
<path d="M2301 691 c-42 -53 -39 -64 4 -17 31 34 43 56 31 56 -2 0 -18 -18
-35 -39z"/>
<path d="M1477 699 c7 -7 15 -10 18 -7 3 3 -2 9 -12 12 -14 6 -15 5 -6 -5z"/>
<path d="M2321 645 c-23 -25 -41 -49 -39 -53 2 -4 22 16 46 45 23 29 41 53 39
53 -2 0 -23 -20 -46 -45z"/>
<path d="M2382 580 c-17 -27 -15 -35 4 -16 8 9 14 21 12 26 -2 6 -9 1 -16 -10z"/>
<path d="M2296 473 c-31 -37 -53 -69 -51 -72 8 -7 50 36 66 67 7 15 22 37 33
50 11 12 17 22 14 22 -4 0 -31 -30 -62 -67z"/>
<path d="M2222 378 c-7 -7 -12 -16 -12 -21 0 -5 7 -1 16 8 9 9 14 18 12 20 -2
3 -10 -1 -16 -7z"/>
<path d="M2125 240 c-6 -9 11 -50 21 -50 2 0 0 9 -6 20 -6 11 -8 25 -5 30 3 6
4 10 1 10 -3 0 -8 -4 -11 -10z"/>
</g>
</svg>
