<?xml version="1.0" standalone="no"?>
<!DOCTYPE svg PUBLIC "-//W3C//DTD SVG 20010904//EN"
 "http://www.w3.org/TR/2001/REC-SVG-20010904/DTD/svg10.dtd">
<svg version="1.0" xmlns="http://www.w3.org/2000/svg"
 width="335.000000pt" height="504.000000pt" viewBox="0 0 335.000000 504.000000"
 preserveAspectRatio="xMidYMid meet">

<g transform="translate(0.000000,504.000000) scale(0.100000,-0.100000)"
fill="#000000" stroke="none">
<path d="M1390 4881 c-12 -9 -10 -11 10 -11 21 -1 17 -5 -24 -26 -32 -17 -45
-29 -37 -34 10 -5 8 -9 -4 -13 -10 -4 -14 -3 -9 4 9 16 -34 1 -67 -22 -33 -23
-46 -13 -16 13 l22 19 -27 -17 c-15 -9 -26 -20 -23 -24 9 -15 -28 -72 -54 -81
-30 -11 -40 -15 -144 -64 -96 -45 -147 -103 -178 -206 -11 -38 -24 -67 -29
-64 -11 7 9 113 27 141 8 14 13 27 10 30 -5 5 -24 -31 -42 -81 -7 -19 -8 -18
-15 5 -7 23 -8 21 -15 -17 -4 -24 -14 -51 -21 -60 -13 -17 -13 -17 -14 0 0 16
-5 17 -32 12 -36 -8 -62 -25 -38 -25 8 0 0 -13 -18 -30 -18 -16 -29 -30 -24
-30 18 0 24 -51 7 -69 -20 -23 -19 -32 2 -24 11 4 14 3 9 -6 -5 -7 -14 -10
-21 -7 -7 2 -16 -2 -19 -10 -3 -9 -10 -12 -16 -9 -5 3 -10 1 -10 -4 0 -6 -5
-11 -11 -11 -7 0 -32 -17 -57 -37 -28 -23 -43 -31 -39 -20 3 9 2 17 -3 17 -6
0 -10 -6 -10 -13 0 -8 -9 -22 -20 -32 -11 -10 -20 -24 -20 -32 0 -7 -4 -13
-10 -13 -6 0 -6 10 1 28 8 21 8 24 -2 15 -13 -13 -22 -253 -10 -253 4 0 13
-28 20 -62 7 -35 19 -96 28 -136 8 -40 12 -80 9 -87 -3 -8 1 -21 9 -29 8 -8
15 -28 15 -44 0 -16 7 -35 15 -42 8 -7 15 -18 15 -24 0 -6 -5 -4 -11 4 -8 11
-9 9 -3 -10 17 -62 36 -138 41 -167 3 -18 8 -31 12 -29 3 2 7 -10 7 -27 1 -18
7 -52 13 -76 6 -24 10 -45 8 -47 -2 -3 -17 2 -33 11 -37 19 -64 19 -64 0 0 -8
-6 -15 -12 -15 -7 -1 -26 -12 -43 -25 -29 -24 -30 -27 -33 -128 -6 -174 39
-363 108 -460 23 -31 45 -57 50 -57 4 0 18 25 31 55 23 55 33 66 42 43 4 -13
-29 -88 -43 -98 -31 -23 -2 -89 49 -109 31 -14 95 -8 106 9 9 14 -15 207 -40
325 -28 133 -38 251 -26 308 5 23 14 103 20 177 11 131 36 244 51 235 5 -3 18
15 30 39 11 24 28 47 36 50 8 3 13 2 10 -3 -3 -5 5 -12 19 -15 14 -4 25 -13
25 -22 0 -8 4 -13 9 -9 5 3 22 -6 36 -19 35 -32 28 -54 -40 -128 -48 -51 -74
-98 -56 -98 13 0 3 -114 -14 -153 -16 -39 -13 -121 6 -159 6 -10 5 -19 -1 -23
-6 -3 -7 -17 -4 -30 3 -13 1 -40 -6 -59 -18 -54 -19 -110 -6 -251 7 -79 8
-152 3 -185 -8 -58 -18 -208 -17 -274 1 -54 29 -122 85 -205 l48 -72 2 -127
c1 -70 5 -160 9 -200 6 -52 5 -72 -4 -72 -14 0 -40 61 -40 94 0 45 -20 39 -22
-6 -3 -78 1 -100 27 -167 57 -142 212 -283 481 -438 252 -145 252 -145 321
-147 35 0 63 -3 63 -5 0 -3 -5 -20 -12 -38 -11 -30 -25 -39 -52 -34 -5 1 -30
4 -55 5 -57 4 -54 2 -41 27 10 18 10 19 -7 10 -53 -28 -171 -165 -254 -296
-107 -167 -189 -285 -198 -285 -16 0 -115 121 -180 218 -64 96 -181 323 -181
351 0 13 2 13 9 3 6 -11 10 -10 17 5 8 19 11 29 13 51 0 6 10 12 20 12 11 0
23 5 26 10 3 6 2 10 -3 10 -4 0 -8 17 -8 38 1 32 -2 37 -19 34 -20 -3 -20 -3
-1 11 19 14 18 15 -12 53 -49 62 -79 148 -86 243 -5 81 -4 87 29 161 19 43 35
90 34 106 0 28 -1 28 -11 6 -6 -12 -15 -22 -19 -22 -5 0 -29 -19 -55 -42 -43
-40 -57 -64 -106 -178 -10 -25 -25 -57 -32 -72 -10 -19 -11 -29 -3 -37 8 -8 7
-11 -5 -11 -9 0 -19 -4 -22 -9 -4 -5 3 -7 14 -4 11 3 20 3 20 0 0 -3 -17 -11
-37 -16 -32 -9 -40 -8 -51 7 -12 15 -13 13 -7 -13 6 -27 5 -28 -8 -12 -14 17
-16 17 -35 -8 -11 -14 -25 -25 -32 -25 -6 0 -8 -4 -5 -10 3 -5 0 -7 -8 -4 -20
7 -43 -18 -78 -88 -17 -33 -33 -58 -35 -55 -6 6 46 111 82 169 29 45 14 51
-18 8 -12 -16 -27 -30 -34 -30 -7 0 -20 -7 -28 -16 -11 -11 -16 -12 -16 -3 0
7 -8 4 -20 -8 -10 -12 -28 -24 -39 -28 -12 -3 -20 -11 -18 -17 2 -10 -16 -15
-65 -20 -9 -1 -14 -6 -12 -10 3 -4 -5 -12 -16 -18 -11 -6 -20 -8 -20 -4 0 3
-6 1 -13 -5 -8 -6 -17 -8 -21 -4 -21 21 -26 -51 -26 -384 l0 -363 455 0 c250
0 455 2 455 5 0 3 -13 46 -29 97 -31 98 -71 240 -71 251 0 4 5 7 10 7 12 0 62
-77 120 -185 23 -44 58 -101 77 -128 31 -42 39 -47 74 -47 36 0 42 4 88 67 28
38 64 87 82 110 17 24 37 43 43 43 23 0 55 -45 96 -133 l40 -87 198 0 199 0
27 113 c26 108 45 162 46 127 0 -9 12 -23 28 -32 32 -20 143 -128 179 -175 22
-29 31 -33 69 -31 30 1 50 8 61 21 17 19 17 20 -4 8 -19 -10 -25 -6 -56 32
-19 23 -88 123 -153 222 -79 119 -147 209 -201 266 -46 47 -83 91 -83 96 0 6
-10 13 -22 16 -16 5 -19 9 -10 19 14 17 -1 44 -18 33 -8 -5 -11 -4 -6 3 3 6
-3 16 -14 22 -11 6 -20 17 -20 24 0 16 45 66 60 66 5 0 10 5 10 12 0 6 10 23
23 36 12 14 16 22 8 17 -11 -7 -13 -2 -8 23 4 19 2 32 -3 32 -6 0 -10 -4 -10
-9 0 -5 -11 -4 -24 2 -31 15 -41 57 -18 75 14 10 14 14 3 21 -10 6 -3 12 23
21 20 6 36 16 36 21 0 14 26 39 40 39 6 0 20 9 32 20 20 18 39 25 61 21 4 0 7
8 7 19 0 16 5 19 23 15 19 -5 27 0 41 27 10 19 35 41 57 52 21 11 39 24 39 30
0 6 22 24 49 41 27 16 47 33 44 37 -2 5 3 8 11 8 8 0 24 12 35 28 12 15 25 32
31 39 5 7 10 17 10 22 0 12 189 211 200 211 4 0 8 -37 9 -82 3 -118 11 -110
11 11 0 98 1 104 30 146 77 112 110 234 110 407 l0 89 48 -6 c53 -7 101 16
123 57 10 21 9 20 -18 -5 -32 -30 -85 -42 -116 -25 -17 9 -19 17 -13 63 10 90
79 355 91 355 2 0 11 -14 19 -32 26 -51 20 -90 -21 -144 -49 -63 -54 -88 -11
-49 18 17 36 35 40 40 4 6 8 6 8 1 0 -5 7 -3 15 4 8 7 15 9 15 5 0 -5 9 2 20
15 11 13 20 29 20 36 0 7 5 14 11 16 10 3 14 20 26 100 4 33 1 42 -30 73 -19
19 -42 35 -51 35 -9 0 -16 4 -16 9 0 20 83 142 91 134 13 -13 49 -190 49 -243
0 -45 -25 -120 -42 -128 -5 -2 -8 -10 -8 -19 0 -43 52 64 79 163 6 23 11 68
12 100 1 45 3 53 9 34 7 -22 8 -21 9 13 1 21 -3 36 -8 33 -5 -4 -7 11 -4 34 6
40 -15 90 -37 90 -22 0 -93 -77 -131 -142 -22 -37 -43 -68 -46 -68 -3 0 -3 31
0 70 4 52 12 78 30 102 34 46 43 63 29 54 -17 -10 -15 9 8 82 19 59 26 95 50
227 5 28 15 73 24 100 8 28 20 82 26 120 6 39 17 93 25 120 7 28 16 63 20 78
3 15 10 25 14 22 5 -3 11 22 13 55 1 33 0 60 -3 60 -3 0 -7 12 -7 28 -5 118
-27 188 -87 279 -49 75 -110 151 -149 186 -16 15 -24 27 -17 27 8 0 32 -19 54
-42 l40 -43 -29 42 c-16 24 -36 45 -45 48 -9 3 -27 14 -39 25 -12 10 -25 20
-28 22 -9 4 -62 110 -62 123 0 6 -20 34 -45 62 -52 59 -112 85 -207 89 -45 1
-68 9 -115 38 -84 51 -222 95 -277 87 -10 -1 -15 2 -12 7 8 14 -149 9 -166 -5
-7 -6 -31 -14 -53 -18 -39 -6 -40 -6 -15 9 24 15 23 16 -37 14 -34 -1 -60 -5
-57 -10 8 -12 -10 -10 -24 4 -15 15 -182 22 -202 9z m150 -21 c0 -7 -14 -8
-37 -4 -52 9 -54 14 -5 14 23 0 42 -5 42 -10z m833 -127 c-7 -2 -19 -2 -25 0
-7 3 -2 5 12 5 14 0 19 -2 13 -5z m62 -49 c29 -12 35 -18 24 -25 -12 -7 -12
-9 1 -10 8 -1 21 -1 29 1 28 3 165 -159 148 -176 -10 -11 -28 7 -58 60 -37 67
-54 82 -116 104 -27 10 -48 23 -46 29 2 6 -9 16 -24 21 -15 6 -21 11 -12 11 9
1 34 -6 54 -15z m-1250 -39 c-27 -24 -53 -41 -57 -39 -4 3 -5 -2 -2 -10 5 -12
16 -8 57 23 81 59 87 59 23 0 -95 -86 -212 -202 -251 -248 -19 -24 -35 -37
-35 -29 0 7 -9 2 -20 -12 -15 -20 -20 -21 -20 -8 0 9 8 23 18 30 11 7 24 23
30 35 20 36 13 38 -10 3 -13 -18 -39 -45 -57 -59 -36 -27 -35 -19 4 34 12 17
34 53 50 82 15 29 30 51 34 50 6 -2 44 26 124 91 22 18 59 43 81 54 22 11 46
27 54 34 7 8 16 14 20 14 4 -1 -15 -20 -43 -45z m-55 10 c0 -2 -15 -12 -32
-20 l-33 -16 25 20 c24 20 40 26 40 16z m-107 -53 c-11 -9 -37 -29 -55 -44
-19 -14 -42 -41 -51 -60 -22 -44 -57 -96 -57 -83 0 14 49 106 69 129 22 26 92
76 105 76 6 -1 1 -8 -11 -18z m617 -6 c0 -2 -20 -16 -45 -30 -25 -13 -43 -21
-40 -15 4 5 23 18 43 29 41 21 42 22 42 16z m-1032 -494 c-13 -16 -34 -37 -48
-48 -18 -13 -14 -5 14 29 21 26 43 47 48 47 5 0 -1 -13 -14 -28z m5 -37 c-3
-9 -8 -14 -10 -11 -3 3 -2 9 2 15 9 16 15 13 8 -4z m845 -25 c2 0 0 5 -4 12
-5 7 -3 8 7 2 24 -15 144 -28 209 -23 36 3 186 -7 255 -17 64 -9 166 -53 220
-95 64 -49 125 -106 125 -116 1 -15 124 -138 177 -176 57 -42 96 -105 108
-177 4 -26 17 -54 30 -66 29 -27 52 -134 60 -284 3 -63 13 -160 22 -214 13
-81 14 -110 5 -154 -6 -30 -9 -59 -6 -63 3 -5 0 -9 -6 -9 -7 0 -9 -7 -6 -17 4
-10 4 -14 0 -10 -7 7 -30 -46 -38 -90 -3 -12 -9 -30 -14 -39 -5 -9 -7 -26 -4
-37 4 -15 2 -18 -8 -12 -10 6 -12 3 -7 -14 4 -16 2 -21 -7 -18 -15 6 -36 -32
-36 -64 0 -11 -4 -17 -10 -14 -5 3 -10 -1 -10 -9 0 -9 -5 -16 -10 -16 -6 0 -9
-3 -8 -7 4 -13 -33 -63 -42 -58 -5 3 -6 14 -3 25 8 30 -20 25 -39 -7 -14 -25
-30 -78 -29 -100 0 -5 -7 -15 -15 -25 -10 -11 -12 -18 -5 -23 6 -3 11 -13 11
-21 0 -8 -4 -13 -8 -10 -4 2 -14 1 -22 -4 -11 -7 -15 -33 -17 -97 -1 -52 -6
-89 -12 -91 -6 -2 -11 -12 -11 -23 0 -10 -4 -19 -10 -19 -5 0 -10 -14 -10 -31
0 -16 -3 -28 -8 -25 -4 2 -7 -16 -7 -42 1 -26 6 -47 13 -50 7 -2 12 -8 12 -13
0 -6 -3 -8 -8 -5 -11 6 -45 -21 -38 -32 3 -5 0 -26 -5 -47 -9 -32 -13 -36 -21
-22 -13 23 -27 21 -21 -3 3 -12 0 -20 -7 -20 -7 0 -10 -7 -7 -15 4 -8 2 -17
-3 -20 -5 -3 -11 7 -13 22 -3 22 -4 20 -6 -11 -1 -29 -5 -37 -15 -33 -11 4
-13 1 -9 -10 4 -11 2 -14 -5 -9 -8 5 -12 0 -12 -13 0 -12 -3 -21 -7 -21 -5 0
-31 -17 -58 -38 -28 -21 -55 -37 -61 -35 -6 2 -17 -3 -24 -12 -7 -8 -22 -15
-34 -15 -12 0 -28 -6 -34 -12 -10 -10 -14 -10 -20 -1 -5 8 -23 11 -49 9 -52
-6 -114 8 -129 28 -6 9 -14 13 -18 9 -4 -4 -12 -1 -17 7 -9 12 -10 12 -5 -3 6
-18 3 -19 -64 -21 -26 -1 -42 5 -62 25 -14 15 -29 25 -32 22 -7 -7 -41 28 -50
51 -5 15 -9 16 -21 6 -8 -7 -16 -9 -16 -4 -3 21 -5 31 -18 69 -15 49 -12 95 9
105 35 17 108 31 155 29 108 -5 172 1 220 19 42 15 50 22 47 41 -1 14 7 30 20
41 13 10 20 21 16 25 -6 6 -137 8 -255 4 -61 -2 -102 20 -104 54 -1 21 -1 20
-8 -3 -6 -22 -8 -23 -14 -7 -11 28 -9 37 9 37 8 0 12 5 9 10 -3 6 2 11 12 11
10 1 34 2 53 4 41 3 90 -12 90 -28 0 -8 3 -8 8 -2 17 25 62 33 153 29 127 -6
270 -6 276 0 2 2 0 13 -6 24 -12 22 -51 32 -97 25 -20 -3 -45 2 -72 16 -23 12
-49 21 -60 21 -10 0 -23 5 -29 11 -7 7 -51 13 -105 14 -51 1 -106 7 -121 14
-44 18 -80 13 -165 -20 -68 -27 -83 -29 -95 -18 -8 7 -12 22 -9 33 3 13 1 17
-6 12 -7 -4 -12 -13 -12 -20 0 -23 -37 -49 -55 -39 -14 8 -11 15 20 48 27 28
33 40 24 46 -16 10 -29 2 -29 -17 0 -8 -4 -14 -10 -14 -5 0 -10 -7 -10 -15 0
-8 -4 -15 -9 -15 -5 0 -11 7 -15 15 -3 8 -12 15 -21 15 -8 0 -15 5 -15 10 0 6
5 10 10 10 6 0 10 5 10 11 0 6 -6 9 -12 7 -22 -8 -51 41 -52 85 -1 28 -6 41
-14 39 -6 -1 -12 5 -12 13 0 8 6 15 14 15 15 0 15 11 1 43 -5 12 -15 17 -26
14 -11 -3 -17 -1 -13 4 3 5 0 9 -7 9 -7 0 -4 6 6 14 19 14 19 15 -8 27 -31 14
-58 67 -50 98 4 16 1 19 -15 14 -14 -3 -22 1 -27 16 -3 12 -10 21 -15 21 -4 0
-10 10 -13 21 -4 15 -11 20 -21 16 -10 -4 -16 -1 -16 8 0 8 -11 25 -25 39 -14
14 -25 32 -25 41 0 9 -4 14 -8 11 -5 -3 -9 0 -9 7 0 7 -3 23 -7 36 -6 16 -5
21 3 17 14 -9 14 -4 1 28 l-10 26 93 0 c200 -1 321 27 384 86 37 35 55 45 33
19 -21 -25 5 -17 30 10 20 21 22 28 12 50 -17 38 -14 43 8 16 25 -30 25 -32
-6 -67 -27 -31 -78 -124 -68 -124 4 0 1 -7 -7 -16 -7 -9 -9 -18 -3 -22 12 -9
18 -31 16 -70 0 -18 3 -30 7 -28 4 3 4 -18 0 -46 -6 -34 -5 -56 2 -64 8 -10 7
-24 -2 -51 -7 -21 -12 -51 -10 -67 2 -18 -1 -26 -8 -22 -12 8 -15 -7 -3 -18 4
-4 7 -40 8 -79 0 -40 2 -79 5 -87 2 -8 -1 -14 -8 -13 -7 2 -10 -4 -6 -12 3
-10 12 -13 24 -10 14 5 17 2 13 -8 -2 -7 2 -20 10 -27 9 -7 14 -16 11 -20 -10
-16 35 3 59 25 14 13 27 20 30 17 3 -3 6 1 6 8 0 7 3 10 6 7 4 -4 28 12 55 34
28 23 50 35 54 29 3 -5 17 -10 30 -10 23 0 35 -17 35 -51 0 -10 6 -19 14 -19
10 0 16 20 21 73 9 87 19 109 48 105 12 -2 22 -7 22 -13 1 -46 53 -46 94 1
l32 36 -28 21 c-22 18 -42 22 -98 23 -92 1 -143 11 -183 38 -41 27 -47 47 -25
88 47 88 55 147 29 222 -13 38 -16 81 -15 205 3 195 0 206 -58 204 -7 0 -16
13 -22 29 -10 29 -51 88 -51 73 0 -4 -7 -2 -15 5 -8 6 -18 9 -24 6 -5 -3 -12
0 -14 6 -4 10 -8 9 -16 -2 -6 -8 -11 -10 -11 -4 0 7 -10 12 -22 11 -13 0 -52
5 -88 11 -36 6 -96 11 -134 11 -52 0 -73 4 -89 18 -14 12 -18 13 -12 3 8 -13
7 -13 -8 -1 -17 13 -16 15 9 32 15 10 29 26 32 36 13 58 29 191 27 225 -2 26
1 35 6 27 7 -11 9 -9 9 5 0 10 -8 24 -17 31 -15 11 -16 16 -4 38 8 14 11 32 8
40 -3 8 0 20 6 26 8 8 8 11 0 11 -6 0 -13 9 -16 20 -3 11 -1 20 4 20 5 0 9 7
9 15 0 8 -6 15 -12 15 -9 0 -8 4 2 10 13 8 12 10 -2 10 -10 0 -18 5 -18 10 0
6 5 10 11 10 7 0 9 12 7 30 -3 17 -1 33 3 36 5 2 6 11 2 19 -3 8 0 15 6 15 6
0 20 9 31 20 11 11 29 20 41 20 11 0 29 5 40 11 11 6 52 12 91 14 38 1 74 7
80 13 6 6 21 7 41 1 18 -5 33 -9 35 -9z m-955 -106 c-19 -49 -44 -111 -54
-139 -11 -33 -18 -42 -18 -27 -1 13 6 36 14 52 9 17 13 30 11 30 -5 0 39 110
61 153 29 57 22 19 -14 -69z m2444 -126 c-3 -8 -6 -5 -6 6 -1 11 2 17 5 13 3
-3 4 -12 1 -19z m-1719 -821 c3 -12 -4 -17 -22 -17 -32 0 -42 16 -19 29 23 13
37 9 41 -12z m113 -67 c16 0 9 -22 -13 -42 -31 -27 -89 -50 -110 -44 -10 2
-18 0 -18 -5 0 -5 -13 -8 -30 -7 -35 3 -41 18 -7 18 12 0 29 5 37 10 11 7 3
10 -30 11 -69 2 -95 12 -98 39 l-4 23 33 -27 c29 -24 39 -27 76 -22 58 8 80
23 99 70 l15 40 21 -32 c11 -18 24 -32 29 -32z m-280 27 c-13 -13 -26 -3 -16
12 3 6 11 8 17 5 6 -4 6 -10 -1 -17z m274 -97 c-3 -5 -12 -10 -18 -10 -7 0 -6
4 3 10 19 12 23 12 15 0z m1222 -567 c-3 -10 -5 -4 -5 12 0 17 2 24 5 18 2 -7
2 -21 0 -30z m-1409 -28 c-3 -3 -9 2 -12 12 -6 14 -5 15 5 6 7 -7 10 -15 7
-18z m1269 -67 c-3 -8 -6 -5 -6 6 -1 11 2 17 5 13 3 -3 4 -12 1 -19z m83 -6
c0 -10 -9 -23 -20 -30 -18 -11 -20 -10 -20 9 0 11 5 17 10 14 6 -3 10 3 10 15
0 12 5 18 10 15 6 -3 10 -14 10 -23z m50 8 c0 -5 -4 -10 -10 -10 -5 0 -10 5
-10 10 0 6 5 10 10 10 6 0 10 -4 10 -10z m-27 -36 c3 -3 -3 -14 -14 -25 -27
-27 -24 -46 11 -54 34 -7 38 -20 13 -47 -9 -11 -11 -18 -5 -18 7 0 12 -9 12
-21 0 -13 -4 -18 -12 -13 -8 5 -9 2 -5 -10 7 -19 -36 -96 -54 -96 -6 0 -9 -6
-6 -12 6 -19 -22 -70 -35 -62 -5 4 -14 1 -18 -7 -7 -10 -11 -10 -24 0 -16 13
-17 12 -20 -9 0 -6 -8 -15 -16 -20 -20 -13 -4 -13 20 0 16 8 18 8 14 -5 -6
-15 -17 -19 -41 -16 -7 1 -13 -2 -13 -8 0 -5 -9 -7 -20 -4 -26 7 -26 23 1 23
19 0 19 1 5 16 -18 18 -13 34 12 35 12 0 10 3 -6 9 -21 9 -22 11 -7 33 8 13
12 27 8 30 -3 4 -1 7 6 7 19 0 39 24 47 56 4 16 13 38 21 50 7 12 11 28 8 35
-3 8 8 30 24 48 16 18 39 46 52 62 22 29 31 34 42 23z m7 -64 c0 -5 -7 -7 -15
-4 -8 4 -12 10 -9 15 6 11 24 2 24 -11z m-1232 -202 c-7 -20 -48 -23 -48 -4 0
11 9 16 26 16 16 0 24 -5 22 -12z m1038 -214 c-15 -14 -36 -19 -36 -8 0 11 34
33 42 27 5 -2 2 -11 -6 -19z m-46 -4 c0 -5 -5 -10 -11 -10 -5 0 -7 5 -4 10 3
6 8 10 11 10 2 0 4 -4 4 -10z m-1840 -754 c0 -3 -4 -8 -10 -11 -5 -3 -10 -1
-10 4 0 6 5 11 10 11 6 0 10 -2 10 -4z m1338 -451 c-1 -25 -6 -39 -10 -32 -6
9 -8 9 -8 0 0 -21 18 -24 36 -6 13 13 16 14 12 3 -3 -8 -1 -23 4 -33 6 -12 5
-16 -3 -15 -6 2 -16 -5 -22 -15 -10 -14 -9 -20 3 -27 8 -5 12 -11 9 -15 -3 -3
-14 4 -23 14 -17 18 -17 20 3 40 12 12 17 21 12 21 -6 0 -13 -5 -17 -11 -4 -8
-9 -8 -18 1 -13 13 -14 43 -1 52 5 4 6 10 2 15 -10 9 -28 -17 -20 -29 2 -5 -1
-17 -8 -26 -7 -9 -9 -14 -5 -10 10 9 36 -9 36 -24 0 -6 -8 -4 -17 3 -16 13
-17 12 -5 -3 8 -10 9 -19 3 -22 -5 -3 -12 0 -14 6 -4 8 -6 9 -6 2 -1 -6 7 -18
16 -25 10 -8 14 -9 10 -2 -4 6 -3 14 3 18 13 8 13 -11 -1 -36 -6 -11 -17 -18
-24 -15 -7 2 -18 -1 -23 -7 -7 -8 -3 -17 14 -30 13 -10 24 -13 24 -7 0 6 -7
13 -15 16 -8 4 -15 11 -15 17 0 8 3 8 11 0 6 -6 17 -9 24 -7 6 3 18 -3 25 -13
12 -15 12 -16 0 -5 -18 16 -38 16 -22 0 14 -14 16 -32 3 -24 -5 3 -14 -1 -21
-9 -6 -7 -17 -12 -24 -9 -16 6 -30 -23 -16 -31 6 -4 10 -1 10 5 0 6 11 -2 25
-18 14 -17 25 -35 25 -42 0 -6 5 -8 13 -4 9 6 8 3 -1 -9 -10 -12 -20 -14 -37
-7 -13 5 -26 6 -30 2 -4 -4 -2 3 4 16 7 12 16 20 22 17 5 -4 7 -11 4 -16 -4
-5 -1 -9 4 -9 16 0 13 12 -8 39 -16 20 -19 21 -24 7 -5 -12 -3 -15 6 -10 9 5
9 4 1 -5 -8 -9 -20 -3 -47 22 -35 32 -46 48 -29 46 20 -3 31 2 26 15 -3 7 6
27 21 44 17 20 23 36 18 49 -5 14 -1 13 22 -7 l29 -25 -25 31 c-15 20 -27 27
-31 20 -5 -7 -8 -7 -8 3 0 7 -6 11 -14 8 -11 -4 -13 -1 -9 10 4 10 2 14 -4 10
-15 -10 -44 3 -37 15 4 6 10 5 15 -3 6 -10 9 -10 9 -2 0 7 7 10 17 6 11 -4 14
-3 9 5 -4 7 -5 12 -2 12 2 0 13 3 23 6 11 4 14 3 6 -3 -8 -6 -7 -13 4 -28 14
-18 15 -18 9 -1 -3 10 -1 25 5 32 6 8 8 14 5 14 -4 0 -1 7 7 15 9 8 18 20 20
27 4 10 8 9 17 -2 10 -13 11 -13 9 0 -2 22 0 40 6 40 2 0 4 -20 3 -45z m-48
11 c0 -3 -4 -8 -10 -11 -5 -3 -10 -1 -10 4 0 6 5 11 10 11 6 0 10 -2 10 -4z
m-46 -152 c9 -22 -3 -32 -14 -14 -12 19 -12 30 -1 30 5 0 12 -7 15 -16z m-34
-28 c0 6 -5 15 -12 22 -9 9 -9 12 0 12 6 0 16 -9 22 -21 9 -16 8 -24 -5 -39
-17 -19 -45 -17 -45 2 0 6 7 4 16 -3 14 -12 16 -11 12 6 -2 11 -11 20 -19 19
-8 -1 -15 7 -15 17 0 17 2 17 23 -3 13 -12 23 -17 23 -12z m94 -112 c5 -14 4
-15 -9 -4 -17 14 -19 20 -6 20 5 0 12 -7 15 -16z m-85 -37 c0 -8 -2 -8 -6 1
-4 10 -8 10 -21 0 -15 -12 -16 -11 -3 4 14 19 32 15 30 -5z m21 -27 c0 -5 -4
-10 -10 -10 -5 0 -10 5 -10 10 0 6 5 10 10 10 6 0 10 -4 10 -10z m42 -100 c-2
-3 -7 1 -9 8 -4 10 -9 8 -19 -5 -13 -17 -14 -17 -7 2 9 29 27 37 34 17 4 -9 4
-19 1 -22z"/>
<path d="M1090 4559 c0 -5 5 -7 10 -4 6 3 10 8 10 11 0 2 -4 4 -10 4 -5 0 -10
-5 -10 -11z"/>
<path d="M1953 3233 c-4 -10 -9 -11 -19 -2 -11 9 -14 8 -14 -5 0 -19 -1 -19
-34 -6 -23 8 -26 7 -27 -13 0 -12 -3 -16 -6 -9 -10 25 -23 11 -23 -25 -1 -31
-3 -35 -11 -20 -15 26 -30 21 -19 -7 8 -21 6 -24 -10 -21 -18 4 -18 3 0 -40
13 -30 17 -56 13 -85 -4 -31 -3 -41 5 -36 7 4 12 2 12 -5 0 -8 19 -10 64 -7
63 4 64 4 50 -17 -13 -21 -12 -22 23 -34 21 -6 52 -23 68 -36 l30 -26 -48 22
c-52 22 -75 18 -42 -8 69 -53 215 -91 298 -79 34 5 57 17 87 45 22 20 40 42
40 48 0 5 17 18 38 29 55 28 75 50 59 66 -7 7 -20 25 -29 40 -17 25 -116 81
-177 98 -24 7 -24 8 -6 14 11 4 29 12 39 18 15 8 22 7 31 -6 14 -19 46 -22 43
-3 -2 7 5 11 17 9 11 -2 29 -3 39 -3 11 0 39 -12 63 -26 34 -20 47 -23 56 -14
9 9 8 14 -3 21 -10 7 -11 10 -2 10 21 0 13 27 -17 52 -16 14 -51 30 -77 37
-27 7 -65 17 -84 22 -19 5 -122 11 -228 13 -157 2 -195 0 -199 -11z m375 -193
c46 -21 58 -36 15 -19 -16 6 -48 17 -73 24 -39 12 -41 13 -15 14 17 0 49 -8
73 -19z m-118 -40 c24 -15 -2 -32 -35 -24 -26 7 -27 8 -10 20 22 16 25 17 45
4z m103 -26 c26 -35 16 -64 -35 -97 -41 -27 -42 -27 -13 -25 17 1 36 10 43 20
14 19 42 14 42 -7 0 -18 -55 -56 -86 -60 -19 -2 -28 4 -34 21 -11 29 -24 32
-15 4 5 -17 2 -19 -17 -16 -15 2 -22 9 -20 21 2 10 -1 14 -7 10 -6 -3 -11 -1
-11 4 0 18 -28 13 -39 -6 -6 -10 -11 -12 -11 -5 0 6 -7 12 -16 12 -8 0 -12 5
-9 10 3 6 0 10 -8 10 -16 0 -34 55 -29 88 4 27 22 30 22 3 0 -35 38 -69 84
-76 24 -4 54 -4 65 0 22 7 61 71 61 100 0 22 12 18 33 -11z m163 -31 c-8 -8
-44 7 -49 21 -4 11 1 11 24 -1 17 -8 28 -17 25 -20z"/>
<path d="M1286 2125 c-9 -26 -7 -32 5 -12 6 10 9 21 6 23 -2 3 -7 -2 -11 -11z"/>
<path d="M1370 2076 c0 -9 5 -16 10 -16 6 0 10 4 10 9 0 6 -4 13 -10 16 -5 3
-10 -1 -10 -9z"/>
<path d="M1250 2070 c0 -5 5 -10 10 -10 6 0 10 5 10 10 0 6 -4 10 -10 10 -5 0
-10 -4 -10 -10z"/>
<path d="M2317 2013 c-4 -3 -7 -13 -7 -22 1 -13 3 -13 11 2 11 19 8 33 -4 20z"/>
<path d="M2232 1630 c0 -14 2 -19 5 -12 2 6 2 18 0 25 -3 6 -5 1 -5 -13z"/>
<path d="M1265 2883 c-11 -3 -24 -10 -30 -15 -12 -13 35 0 50 13 5 5 7 8 5 8
-3 -1 -14 -3 -25 -6z"/>
<path d="M2507 2053 c-4 -3 -7 -11 -7 -17 0 -6 5 -5 12 2 6 6 9 14 7 17 -3 3
-9 2 -12 -2z"/>
<path d="M2416 2025 c4 -8 10 -12 15 -9 11 6 2 24 -11 24 -5 0 -7 -7 -4 -15z"/>
<path d="M2488 1943 c7 -3 16 -2 19 1 4 3 -2 6 -13 5 -11 0 -14 -3 -6 -6z"/>
<path d="M2400 1871 c0 -5 7 -12 16 -15 14 -5 15 -4 4 9 -14 17 -20 19 -20 6z"/>
<path d="M1674 248 c-4 -7 -2 -14 6 -16 9 -3 7 -8 -8 -16 -21 -11 -21 -11 5
-36 22 -20 24 -21 15 -5 -7 14 -7 26 -1 38 6 9 7 22 4 27 -10 16 2 12 20 -7
16 -16 17 -15 14 2 -5 21 -44 30 -55 13z"/>
<path d="M1315 4840 c-3 -6 1 -7 9 -4 18 7 21 14 7 14 -6 0 -13 -4 -16 -10z"/>
<path d="M1130 4770 c-19 -11 -41 -19 -49 -20 -20 0 -101 -42 -101 -52 0 -4
15 1 33 12 34 21 62 27 52 10 -3 -6 1 -7 9 -4 9 3 14 10 11 14 -3 4 5 11 18
14 19 5 80 46 67 45 -3 0 -21 -8 -40 -19z"/>
<path d="M893 4578 c-20 -26 -26 -41 -15 -34 12 7 36 46 29 46 -3 0 -9 -6 -14
-12z"/>
<path d="M460 4213 c-17 -26 -30 -51 -30 -57 0 -5 1 -7 3 -5 46 61 75 109 67
109 -6 0 -24 -21 -40 -47z"/>
<path d="M391 3794 c0 -11 3 -14 6 -6 3 7 2 16 -1 19 -3 4 -6 -2 -5 -13z"/>
<path d="M2808 2493 c-17 -20 -38 -58 -38 -69 0 -13 31 20 46 49 18 34 14 45
-8 20z"/>
<path d="M2447 1379 c-4 -30 -7 -72 -7 -95 0 -112 -144 -281 -355 -419 -178
-117 -288 -185 -307 -191 -10 -4 -18 -10 -18 -15 0 -14 9 -11 53 20 23 15 89
57 147 91 178 107 283 185 364 271 76 81 104 124 133 203 16 46 19 129 5 165
-8 21 -10 17 -15 -30z"/>
<path d="M2560 1312 c0 -22 14 -82 32 -133 32 -92 32 -97 32 -274 0 -203 -11
-263 -68 -389 -19 -42 -31 -74 -26 -71 6 4 10 3 10 0 0 -16 -33 -137 -65 -235
-18 -58 -40 -129 -49 -157 l-15 -53 470 0 469 0 0 388 0 387 -98 44 c-281 128
-313 146 -410 236 -51 48 -122 125 -158 171 -36 46 -79 93 -95 104 l-29 21 0
-39z"/>
</g>
</svg>
